<mxfile compressed="false" pages="6" type="device">
    <diagram id="c0a987a6-b538-40b1-91ff-1b2977ab53eb" name="Complete">
        <mxGraphModel arrows="1" connect="1" fold="1" grid="1" gridSize="10" guides="1" math="0" page="1" pageScale="1" shadow="0" tooltips="1">
            <root>
                <mxCell id="0"/>
                <mxCell id="1" parent="0"/>
                <mxCell id="d50069ec-d9b9-43ec-97b3-60d7676f1b12" parent="0" value="Foreground"/>
                <mxCell id="81b1721f-f0f2-434d-a08d-985b0ee10698" parent="d50069ec-d9b9-43ec-97b3-60d7676f1b12" style="rounded=0;whiteSpace=wrap;html=1;fillColor=#253F8E;fontSize=9;fontColor=#FFFFFF;align=left;strokeColor=none" value="&lt;p style=&quot;line-height: 100%;&quot;&gt;Interrupt&lt;br&gt;GeneratorIfc&lt;br&gt;&lt;i&gt;Interface&lt;/i&gt;&lt;/p&gt;" vertex="1">
                    <mxGeometry as="geometry" height="2590.0" width="560.0" x="10.0" y="10.0"/>
                </mxCell>
                <mxCell id="871b2cf6-62c5-4d5c-8de9-7a760a79695c" parent="d50069ec-d9b9-43ec-97b3-60d7676f1b12" style="rounded=0;whiteSpace=wrap;html=1;fillColor=#00CCCC;fontSize=9;fontColor=#000000;align=left;strokeColor=none" value="&lt;p style=&quot;line-height: 100%;&quot;&gt;Interrupt&lt;br&gt;GeneratorBlk&lt;br&gt;&lt;i&gt;Block&lt;/i&gt;&lt;/p&gt;" vertex="1">
                    <mxGeometry as="geometry" height="2570.0" width="470.0" x="90.0" y="20.0"/>
                </mxCell>
                <mxCell id="1801db78-7d94-4fec-be29-81a193ab22a9" parent="d50069ec-d9b9-43ec-97b3-60d7676f1b12" style="rounded=0;whiteSpace=wrap;html=1;fillColor=#F58828;fontSize=9;fontColor=#000000;align=left;strokeColor=none" value="&lt;p style=&quot;line-height: 100%;&quot;&gt;ControlReg&lt;br&gt;&lt;i&gt;Register&lt;/i&gt;&lt;/p&gt;" vertex="1">
                    <mxGeometry as="geometry" height="290.0" width="380.0" x="170.0" y="30.0"/>
                </mxCell>
                <mxCell id="36537eea-86fe-4bf1-be57-a7bb7fe8ec57" parent="d50069ec-d9b9-43ec-97b3-60d7676f1b12" style="rounded=0;whiteSpace=wrap;html=1;fillColor=#F19C99;fontSize=9;fontColor=#000000;align=left;strokeColor=none" value="&lt;p style=&quot;line-height: 100%;&quot;&gt;Channel&lt;br&gt;Operation0&lt;br&gt;&lt;i&gt;Enum&lt;/i&gt;&lt;/p&gt;" vertex="1">
                    <mxGeometry as="geometry" height="60.0" width="290.0" x="250.0" y="40.0"/>
                </mxCell>
                <mxCell id="e59451ff-b0ee-41a4-8361-13d5b44a8f91" parent="d50069ec-d9b9-43ec-97b3-60d7676f1b12" style="fillColor=#FFFFFF;arrowSize=0.05;shape=doubleArrow;rounded=0;whiteSpace=wrap;html=1;fontSize=9;arrowWidth=1" value="&lt;p style=&quot;line-height: 100%;&quot;&gt;&lt;/p&gt;" vertex="1">
                    <mxGeometry as="geometry" height="40.0" width="160.0" x="330.0" y="50.0"/>
                </mxCell>
                <mxCell id="907075d2-19ac-4cf0-8b0e-d645ec073609" parent="d50069ec-d9b9-43ec-97b3-60d7676f1b12" style="fillColor=#FFFFFF;rounded=0;whiteSpace=wrap;html=1;fontSize=9;arrowWidth=1" value="&lt;p style=&quot;line-height: 100%;&quot;&gt;Reg&lt;/p&gt;" vertex="1">
                    <mxGeometry as="geometry" height="40.0" width="20.0" x="490.0" y="50.0"/>
                </mxCell>
                <mxCell id="858becf4-1618-4a13-9500-0c70098d5fb5" parent="d50069ec-d9b9-43ec-97b3-60d7676f1b12" style="fillColor=#FFFFFF;arrowSize=0.5;shape=singleArrow;rounded=0;whiteSpace=wrap;html=1;fontSize=9;arrowWidth=1" vertex="1">
                    <mxGeometry as="geometry" height="40.0" width="20.0" x="510.0" y="50.0"/>
                </mxCell>
                <mxCell id="d2a6d9ce-ced3-42b8-a8a3-7ab20182a52a" parent="d50069ec-d9b9-43ec-97b3-60d7676f1b12" style="rounded=0;whiteSpace=wrap;html=1;fillColor=#F19C99;fontSize=9;fontColor=#000000;align=left;strokeColor=none" value="&lt;p style=&quot;line-height: 100%;&quot;&gt;Channel&lt;br&gt;Operation1&lt;br&gt;&lt;i&gt;Enum&lt;/i&gt;&lt;/p&gt;" vertex="1">
                    <mxGeometry as="geometry" height="60.0" width="290.0" x="250.0" y="110.0"/>
                </mxCell>
                <mxCell id="c57e65bc-e3c3-4cd6-b47f-5d56f4e82a17" parent="d50069ec-d9b9-43ec-97b3-60d7676f1b12" style="fillColor=#FFFFFF;arrowSize=0.05;shape=doubleArrow;rounded=0;whiteSpace=wrap;html=1;fontSize=9;arrowWidth=1" value="&lt;p style=&quot;line-height: 100%;&quot;&gt;&lt;/p&gt;" vertex="1">
                    <mxGeometry as="geometry" height="40.0" width="160.0" x="330.0" y="120.0"/>
                </mxCell>
                <mxCell id="babc2ce4-cdf2-455d-9398-ed68b51b4618" parent="d50069ec-d9b9-43ec-97b3-60d7676f1b12" style="fillColor=#FFFFFF;rounded=0;whiteSpace=wrap;html=1;fontSize=9;arrowWidth=1" value="&lt;p style=&quot;line-height: 100%;&quot;&gt;Reg&lt;/p&gt;" vertex="1">
                    <mxGeometry as="geometry" height="40.0" width="20.0" x="490.0" y="120.0"/>
                </mxCell>
                <mxCell id="6de897d1-4416-42bf-9777-da9adcd9637e" parent="d50069ec-d9b9-43ec-97b3-60d7676f1b12" style="fillColor=#FFFFFF;arrowSize=0.5;shape=singleArrow;rounded=0;whiteSpace=wrap;html=1;fontSize=9;arrowWidth=1" vertex="1">
                    <mxGeometry as="geometry" height="40.0" width="20.0" x="510.0" y="120.0"/>
                </mxCell>
                <mxCell id="783b4536-06b8-47b4-b54c-2863ac18b609" parent="d50069ec-d9b9-43ec-97b3-60d7676f1b12" style="rounded=0;whiteSpace=wrap;html=1;fillColor=#F19C99;fontSize=9;fontColor=#000000;align=left;strokeColor=none" value="&lt;p style=&quot;line-height: 100%;&quot;&gt;Channel&lt;br&gt;Operation2&lt;br&gt;&lt;i&gt;Enum&lt;/i&gt;&lt;/p&gt;" vertex="1">
                    <mxGeometry as="geometry" height="60.0" width="290.0" x="250.0" y="180.0"/>
                </mxCell>
                <mxCell id="3b67b7fc-cc21-483b-bef9-574df8f4dae4" parent="d50069ec-d9b9-43ec-97b3-60d7676f1b12" style="fillColor=#FFFFFF;arrowSize=0.05;shape=doubleArrow;rounded=0;whiteSpace=wrap;html=1;fontSize=9;arrowWidth=1" value="&lt;p style=&quot;line-height: 100%;&quot;&gt;&lt;/p&gt;" vertex="1">
                    <mxGeometry as="geometry" height="40.0" width="160.0" x="330.0" y="190.0"/>
                </mxCell>
                <mxCell id="43a4ed7f-e2ca-40f3-9117-dac1e9ab7cf1" parent="d50069ec-d9b9-43ec-97b3-60d7676f1b12" style="fillColor=#FFFFFF;rounded=0;whiteSpace=wrap;html=1;fontSize=9;arrowWidth=1" value="&lt;p style=&quot;line-height: 100%;&quot;&gt;Reg&lt;/p&gt;" vertex="1">
                    <mxGeometry as="geometry" height="40.0" width="20.0" x="490.0" y="190.0"/>
                </mxCell>
                <mxCell id="bad7147a-7e30-4135-997f-7dd22608787e" parent="d50069ec-d9b9-43ec-97b3-60d7676f1b12" style="fillColor=#FFFFFF;arrowSize=0.5;shape=singleArrow;rounded=0;whiteSpace=wrap;html=1;fontSize=9;arrowWidth=1" vertex="1">
                    <mxGeometry as="geometry" height="40.0" width="20.0" x="510.0" y="190.0"/>
                </mxCell>
                <mxCell id="1ba1ae8e-34fe-47af-99ee-e444b0839a6e" parent="d50069ec-d9b9-43ec-97b3-60d7676f1b12" style="rounded=0;whiteSpace=wrap;html=1;fillColor=#F19C99;fontSize=9;fontColor=#000000;align=left;strokeColor=none" value="&lt;p style=&quot;line-height: 100%;&quot;&gt;Channel&lt;br&gt;Operation3&lt;br&gt;&lt;i&gt;Enum&lt;/i&gt;&lt;/p&gt;" vertex="1">
                    <mxGeometry as="geometry" height="60.0" width="290.0" x="250.0" y="250.0"/>
                </mxCell>
                <mxCell id="75f9ceb1-ebbe-48cf-9d7e-64135e3bc4aa" parent="d50069ec-d9b9-43ec-97b3-60d7676f1b12" style="fillColor=#FFFFFF;arrowSize=0.05;shape=doubleArrow;rounded=0;whiteSpace=wrap;html=1;fontSize=9;arrowWidth=1" value="&lt;p style=&quot;line-height: 100%;&quot;&gt;&lt;/p&gt;" vertex="1">
                    <mxGeometry as="geometry" height="40.0" width="160.0" x="330.0" y="260.0"/>
                </mxCell>
                <mxCell id="638c7d27-3d5a-489f-97f2-fe55ee54becd" parent="d50069ec-d9b9-43ec-97b3-60d7676f1b12" style="fillColor=#FFFFFF;rounded=0;whiteSpace=wrap;html=1;fontSize=9;arrowWidth=1" value="&lt;p style=&quot;line-height: 100%;&quot;&gt;Reg&lt;/p&gt;" vertex="1">
                    <mxGeometry as="geometry" height="40.0" width="20.0" x="490.0" y="260.0"/>
                </mxCell>
                <mxCell id="54c2d85c-8820-4a3f-b15c-c1794533371b" parent="d50069ec-d9b9-43ec-97b3-60d7676f1b12" style="fillColor=#FFFFFF;arrowSize=0.5;shape=singleArrow;rounded=0;whiteSpace=wrap;html=1;fontSize=9;arrowWidth=1" vertex="1">
                    <mxGeometry as="geometry" height="40.0" width="20.0" x="510.0" y="260.0"/>
                </mxCell>
                <mxCell id="20ed4078-4dbe-492d-b255-8f6785da2b56" parent="d50069ec-d9b9-43ec-97b3-60d7676f1b12" style="rounded=0;whiteSpace=wrap;html=1;fillColor=#F58828;fontSize=9;fontColor=#000000;align=left;strokeColor=none" value="&lt;p style=&quot;line-height: 100%;&quot;&gt;StatusReg&lt;br&gt;&lt;i&gt;Register&lt;/i&gt;&lt;/p&gt;" vertex="1">
                    <mxGeometry as="geometry" height="290.0" width="380.0" x="170.0" y="330.0"/>
                </mxCell>
                <mxCell id="d06ad258-ea8d-44db-8826-126b4a8818df" parent="d50069ec-d9b9-43ec-97b3-60d7676f1b12" style="rounded=0;whiteSpace=wrap;html=1;fillColor=#F19C99;fontSize=9;fontColor=#000000;align=left;strokeColor=none" value="&lt;p style=&quot;line-height: 100%;&quot;&gt;ChannelStatus0&lt;br&gt;&lt;i&gt;Enum&lt;/i&gt;&lt;/p&gt;" vertex="1">
                    <mxGeometry as="geometry" height="60.0" width="290.0" x="250.0" y="340.0"/>
                </mxCell>
                <mxCell id="2b08f8e2-69f1-483d-9d72-9ea333e9e4e2" parent="d50069ec-d9b9-43ec-97b3-60d7676f1b12" style="fillColor=#FFFFFF;arrowSize=0.05;shape=singleArrow;direction=west;rounded=0;whiteSpace=wrap;html=1;fontSize=9;arrowWidth=1" value="&lt;p style=&quot;line-height: 100%;&quot;&gt;Idle, Operating, Ended&lt;br&gt;&lt;i&gt;Values&lt;/i&gt;&lt;/p&gt;" vertex="1">
                    <mxGeometry as="geometry" height="40.0" width="200.0" x="330.0" y="350.0"/>
                </mxCell>
                <mxCell id="736f77aa-ac63-40f3-8ce9-218e3103cf79" parent="d50069ec-d9b9-43ec-97b3-60d7676f1b12" style="rounded=0;whiteSpace=wrap;html=1;fillColor=#F19C99;fontSize=9;fontColor=#000000;align=left;strokeColor=none" value="&lt;p style=&quot;line-height: 100%;&quot;&gt;ChannelStatus1&lt;br&gt;&lt;i&gt;Enum&lt;/i&gt;&lt;/p&gt;" vertex="1">
                    <mxGeometry as="geometry" height="60.0" width="290.0" x="250.0" y="410.0"/>
                </mxCell>
                <mxCell id="d0672ceb-f621-4800-8090-9818c6471f64" parent="d50069ec-d9b9-43ec-97b3-60d7676f1b12" style="fillColor=#FFFFFF;arrowSize=0.05;shape=singleArrow;direction=west;rounded=0;whiteSpace=wrap;html=1;fontSize=9;arrowWidth=1" value="&lt;p style=&quot;line-height: 100%;&quot;&gt;Idle, Operating, Ended&lt;br&gt;&lt;i&gt;Values&lt;/i&gt;&lt;/p&gt;" vertex="1">
                    <mxGeometry as="geometry" height="40.0" width="200.0" x="330.0" y="420.0"/>
                </mxCell>
                <mxCell id="8c6bc9dc-71b8-48b4-aeb3-10da25a24ee9" parent="d50069ec-d9b9-43ec-97b3-60d7676f1b12" style="rounded=0;whiteSpace=wrap;html=1;fillColor=#F19C99;fontSize=9;fontColor=#000000;align=left;strokeColor=none" value="&lt;p style=&quot;line-height: 100%;&quot;&gt;ChannelStatus2&lt;br&gt;&lt;i&gt;Enum&lt;/i&gt;&lt;/p&gt;" vertex="1">
                    <mxGeometry as="geometry" height="60.0" width="290.0" x="250.0" y="480.0"/>
                </mxCell>
                <mxCell id="db888d75-2445-498d-8729-528495836c5b" parent="d50069ec-d9b9-43ec-97b3-60d7676f1b12" style="fillColor=#FFFFFF;arrowSize=0.05;shape=singleArrow;direction=west;rounded=0;whiteSpace=wrap;html=1;fontSize=9;arrowWidth=1" value="&lt;p style=&quot;line-height: 100%;&quot;&gt;Idle, Operating, Ended&lt;br&gt;&lt;i&gt;Values&lt;/i&gt;&lt;/p&gt;" vertex="1">
                    <mxGeometry as="geometry" height="40.0" width="200.0" x="330.0" y="490.0"/>
                </mxCell>
                <mxCell id="3d288a18-4b9f-4569-bd1f-3a0504cd13ac" parent="d50069ec-d9b9-43ec-97b3-60d7676f1b12" style="rounded=0;whiteSpace=wrap;html=1;fillColor=#F19C99;fontSize=9;fontColor=#000000;align=left;strokeColor=none" value="&lt;p style=&quot;line-height: 100%;&quot;&gt;ChannelStatus3&lt;br&gt;&lt;i&gt;Enum&lt;/i&gt;&lt;/p&gt;" vertex="1">
                    <mxGeometry as="geometry" height="60.0" width="290.0" x="250.0" y="550.0"/>
                </mxCell>
                <mxCell id="92b566da-a948-4619-8abc-96b8f2878a8c" parent="d50069ec-d9b9-43ec-97b3-60d7676f1b12" style="fillColor=#FFFFFF;arrowSize=0.05;shape=singleArrow;direction=west;rounded=0;whiteSpace=wrap;html=1;fontSize=9;arrowWidth=1" value="&lt;p style=&quot;line-height: 100%;&quot;&gt;Idle, Operating, Ended&lt;br&gt;&lt;i&gt;Values&lt;/i&gt;&lt;/p&gt;" vertex="1">
                    <mxGeometry as="geometry" height="40.0" width="200.0" x="330.0" y="560.0"/>
                </mxCell>
                <mxCell id="35469f9f-297d-4b03-9e63-872137eedc91" parent="d50069ec-d9b9-43ec-97b3-60d7676f1b12" style="rounded=0;whiteSpace=wrap;html=1;fillColor=#F58828;fontSize=9;fontColor=#000000;align=left;strokeColor=none" value="&lt;p style=&quot;line-height: 100%;&quot;&gt;&lt;br&gt;ChargedCountReg0&lt;br&gt;&lt;i&gt;Register&lt;/i&gt;&lt;/p&gt;" vertex="1">
                    <mxGeometry as="geometry" height="80.0" width="380.0" x="170.0" y="630.0"/>
                </mxCell>
                <mxCell id="2ae3fb64-602a-4880-aef4-9be307e40cde" parent="d50069ec-d9b9-43ec-97b3-60d7676f1b12" style="rounded=0;whiteSpace=wrap;html=1;fillColor=#66B2FF;fontSize=9;fontColor=#000000;align=left;strokeColor=none" value="&lt;p style=&quot;line-height: 100%;&quot;&gt;Count&lt;br&gt;&lt;i&gt;Data&lt;/i&gt;&lt;/p&gt;" vertex="1">
                    <mxGeometry as="geometry" height="60.0" width="290.0" x="250.0" y="640.0"/>
                </mxCell>
                <mxCell id="ba594632-30f4-4c91-99c8-e858d9eaf637" parent="d50069ec-d9b9-43ec-97b3-60d7676f1b12" style="fillColor=#FFFFFF;arrowSize=0.05;shape=doubleArrow;rounded=0;whiteSpace=wrap;html=1;fontSize=9;arrowWidth=1" value="&lt;p style=&quot;line-height: 100%;&quot;&gt;&lt;/p&gt;" vertex="1">
                    <mxGeometry as="geometry" height="40.0" width="160.0" x="330.0" y="650.0"/>
                </mxCell>
                <mxCell id="26c3522b-5249-49a8-b691-7134f61fe609" parent="d50069ec-d9b9-43ec-97b3-60d7676f1b12" style="fillColor=#FFFFFF;rounded=0;whiteSpace=wrap;html=1;fontSize=9;arrowWidth=1" value="&lt;p style=&quot;line-height: 100%;&quot;&gt;Reg&lt;/p&gt;" vertex="1">
                    <mxGeometry as="geometry" height="40.0" width="20.0" x="490.0" y="650.0"/>
                </mxCell>
                <mxCell id="4282481b-3fc4-451a-9801-45c9a884c6dd" parent="d50069ec-d9b9-43ec-97b3-60d7676f1b12" style="fillColor=#FFFFFF;arrowSize=0.5;shape=singleArrow;rounded=0;whiteSpace=wrap;html=1;fontSize=9;arrowWidth=1" vertex="1">
                    <mxGeometry as="geometry" height="40.0" width="20.0" x="510.0" y="650.0"/>
                </mxCell>
                <mxCell id="a65855bc-6bac-4eb1-9d12-3865339ae4bc" parent="d50069ec-d9b9-43ec-97b3-60d7676f1b12" style="rounded=0;whiteSpace=wrap;html=1;fillColor=#F58828;fontSize=9;fontColor=#000000;align=left;strokeColor=none" value="&lt;p style=&quot;line-height: 100%;&quot;&gt;&lt;br&gt;ChargedCountReg1&lt;br&gt;&lt;i&gt;Register&lt;/i&gt;&lt;/p&gt;" vertex="1">
                    <mxGeometry as="geometry" height="80.0" width="380.0" x="170.0" y="720.0"/>
                </mxCell>
                <mxCell id="aef606f6-d616-477f-b30f-8e3628c837d3" parent="d50069ec-d9b9-43ec-97b3-60d7676f1b12" style="rounded=0;whiteSpace=wrap;html=1;fillColor=#66B2FF;fontSize=9;fontColor=#000000;align=left;strokeColor=none" value="&lt;p style=&quot;line-height: 100%;&quot;&gt;Count&lt;br&gt;&lt;i&gt;Data&lt;/i&gt;&lt;/p&gt;" vertex="1">
                    <mxGeometry as="geometry" height="60.0" width="290.0" x="250.0" y="730.0"/>
                </mxCell>
                <mxCell id="16a92299-ca13-41c3-9f6f-bd3751157978" parent="d50069ec-d9b9-43ec-97b3-60d7676f1b12" style="fillColor=#FFFFFF;arrowSize=0.05;shape=doubleArrow;rounded=0;whiteSpace=wrap;html=1;fontSize=9;arrowWidth=1" value="&lt;p style=&quot;line-height: 100%;&quot;&gt;&lt;/p&gt;" vertex="1">
                    <mxGeometry as="geometry" height="40.0" width="160.0" x="330.0" y="740.0"/>
                </mxCell>
                <mxCell id="5b2c35d7-4e42-43d5-8a53-124cadaa3154" parent="d50069ec-d9b9-43ec-97b3-60d7676f1b12" style="fillColor=#FFFFFF;rounded=0;whiteSpace=wrap;html=1;fontSize=9;arrowWidth=1" value="&lt;p style=&quot;line-height: 100%;&quot;&gt;Reg&lt;/p&gt;" vertex="1">
                    <mxGeometry as="geometry" height="40.0" width="20.0" x="490.0" y="740.0"/>
                </mxCell>
                <mxCell id="01160ae1-523b-4179-8ffc-e33b901ec70f" parent="d50069ec-d9b9-43ec-97b3-60d7676f1b12" style="fillColor=#FFFFFF;arrowSize=0.5;shape=singleArrow;rounded=0;whiteSpace=wrap;html=1;fontSize=9;arrowWidth=1" vertex="1">
                    <mxGeometry as="geometry" height="40.0" width="20.0" x="510.0" y="740.0"/>
                </mxCell>
                <mxCell id="4e0ab7ec-a0c5-4e6b-aa77-ca2b31aed9e1" parent="d50069ec-d9b9-43ec-97b3-60d7676f1b12" style="rounded=0;whiteSpace=wrap;html=1;fillColor=#F58828;fontSize=9;fontColor=#000000;align=left;strokeColor=none" value="&lt;p style=&quot;line-height: 100%;&quot;&gt;&lt;br&gt;ChargedCountReg2&lt;br&gt;&lt;i&gt;Register&lt;/i&gt;&lt;/p&gt;" vertex="1">
                    <mxGeometry as="geometry" height="80.0" width="380.0" x="170.0" y="810.0"/>
                </mxCell>
                <mxCell id="65ba0c18-4e63-4993-a8d8-511bd0a11e38" parent="d50069ec-d9b9-43ec-97b3-60d7676f1b12" style="rounded=0;whiteSpace=wrap;html=1;fillColor=#66B2FF;fontSize=9;fontColor=#000000;align=left;strokeColor=none" value="&lt;p style=&quot;line-height: 100%;&quot;&gt;Count&lt;br&gt;&lt;i&gt;Data&lt;/i&gt;&lt;/p&gt;" vertex="1">
                    <mxGeometry as="geometry" height="60.0" width="290.0" x="250.0" y="820.0"/>
                </mxCell>
                <mxCell id="183730a4-ef97-4120-b745-e88b8ae79686" parent="d50069ec-d9b9-43ec-97b3-60d7676f1b12" style="fillColor=#FFFFFF;arrowSize=0.05;shape=doubleArrow;rounded=0;whiteSpace=wrap;html=1;fontSize=9;arrowWidth=1" value="&lt;p style=&quot;line-height: 100%;&quot;&gt;&lt;/p&gt;" vertex="1">
                    <mxGeometry as="geometry" height="40.0" width="160.0" x="330.0" y="830.0"/>
                </mxCell>
                <mxCell id="6d056930-63fc-4008-9600-5f208791768c" parent="d50069ec-d9b9-43ec-97b3-60d7676f1b12" style="fillColor=#FFFFFF;rounded=0;whiteSpace=wrap;html=1;fontSize=9;arrowWidth=1" value="&lt;p style=&quot;line-height: 100%;&quot;&gt;Reg&lt;/p&gt;" vertex="1">
                    <mxGeometry as="geometry" height="40.0" width="20.0" x="490.0" y="830.0"/>
                </mxCell>
                <mxCell id="0236335c-ae56-4d64-9db7-11fa8ea60971" parent="d50069ec-d9b9-43ec-97b3-60d7676f1b12" style="fillColor=#FFFFFF;arrowSize=0.5;shape=singleArrow;rounded=0;whiteSpace=wrap;html=1;fontSize=9;arrowWidth=1" vertex="1">
                    <mxGeometry as="geometry" height="40.0" width="20.0" x="510.0" y="830.0"/>
                </mxCell>
                <mxCell id="0f1d94c1-688f-4e9c-a779-4942f5d59e68" parent="d50069ec-d9b9-43ec-97b3-60d7676f1b12" style="rounded=0;whiteSpace=wrap;html=1;fillColor=#F58828;fontSize=9;fontColor=#000000;align=left;strokeColor=none" value="&lt;p style=&quot;line-height: 100%;&quot;&gt;&lt;br&gt;ChargedCountReg3&lt;br&gt;&lt;i&gt;Register&lt;/i&gt;&lt;/p&gt;" vertex="1">
                    <mxGeometry as="geometry" height="80.0" width="380.0" x="170.0" y="900.0"/>
                </mxCell>
                <mxCell id="9a9deb27-6f1c-482e-acab-5d8fb4240fa9" parent="d50069ec-d9b9-43ec-97b3-60d7676f1b12" style="rounded=0;whiteSpace=wrap;html=1;fillColor=#66B2FF;fontSize=9;fontColor=#000000;align=left;strokeColor=none" value="&lt;p style=&quot;line-height: 100%;&quot;&gt;Count&lt;br&gt;&lt;i&gt;Data&lt;/i&gt;&lt;/p&gt;" vertex="1">
                    <mxGeometry as="geometry" height="60.0" width="290.0" x="250.0" y="910.0"/>
                </mxCell>
                <mxCell id="00e65fc0-bb33-48d2-9843-d7b32547f0dc" parent="d50069ec-d9b9-43ec-97b3-60d7676f1b12" style="fillColor=#FFFFFF;arrowSize=0.05;shape=doubleArrow;rounded=0;whiteSpace=wrap;html=1;fontSize=9;arrowWidth=1" value="&lt;p style=&quot;line-height: 100%;&quot;&gt;&lt;/p&gt;" vertex="1">
                    <mxGeometry as="geometry" height="40.0" width="160.0" x="330.0" y="920.0"/>
                </mxCell>
                <mxCell id="7e6b3d31-7357-4ddf-b8e4-3ea283ff5d78" parent="d50069ec-d9b9-43ec-97b3-60d7676f1b12" style="fillColor=#FFFFFF;rounded=0;whiteSpace=wrap;html=1;fontSize=9;arrowWidth=1" value="&lt;p style=&quot;line-height: 100%;&quot;&gt;Reg&lt;/p&gt;" vertex="1">
                    <mxGeometry as="geometry" height="40.0" width="20.0" x="490.0" y="920.0"/>
                </mxCell>
                <mxCell id="8dbf8083-cf32-428a-bdce-60188195ee87" parent="d50069ec-d9b9-43ec-97b3-60d7676f1b12" style="fillColor=#FFFFFF;arrowSize=0.5;shape=singleArrow;rounded=0;whiteSpace=wrap;html=1;fontSize=9;arrowWidth=1" vertex="1">
                    <mxGeometry as="geometry" height="40.0" width="20.0" x="510.0" y="920.0"/>
                </mxCell>
                <mxCell id="00e94e19-db52-4352-bee6-84f998837a01" parent="d50069ec-d9b9-43ec-97b3-60d7676f1b12" style="rounded=0;whiteSpace=wrap;html=1;fillColor=#F58828;fontSize=9;fontColor=#000000;align=left;strokeColor=none" value="&lt;p style=&quot;line-height: 100%;&quot;&gt;&lt;br&gt;ActualCountReg0&lt;br&gt;&lt;i&gt;Register&lt;/i&gt;&lt;/p&gt;" vertex="1">
                    <mxGeometry as="geometry" height="80.0" width="380.0" x="170.0" y="990.0"/>
                </mxCell>
                <mxCell id="7aa5466f-9d2f-4fc0-b396-0e38a5198bae" parent="d50069ec-d9b9-43ec-97b3-60d7676f1b12" style="rounded=0;whiteSpace=wrap;html=1;fillColor=#66B2FF;fontSize=9;fontColor=#000000;align=left;strokeColor=none" value="&lt;p style=&quot;line-height: 100%;&quot;&gt;Count&lt;br&gt;&lt;i&gt;Data&lt;/i&gt;&lt;/p&gt;" vertex="1">
                    <mxGeometry as="geometry" height="60.0" width="290.0" x="250.0" y="1000.0"/>
                </mxCell>
                <mxCell id="23a8cf49-486a-4e64-8616-696d52b7b1ee" parent="d50069ec-d9b9-43ec-97b3-60d7676f1b12" style="fillColor=#FFFFFF;arrowSize=0.05;shape=singleArrow;direction=west;rounded=0;whiteSpace=wrap;html=1;fontSize=9;arrowWidth=1" value="&lt;p style=&quot;line-height: 100%;&quot;&gt;&lt;/p&gt;" vertex="1">
                    <mxGeometry as="geometry" height="40.0" width="200.0" x="330.0" y="1010.0"/>
                </mxCell>
                <mxCell id="e9ef3969-c92d-4d00-94a4-6ff75f4136a3" parent="d50069ec-d9b9-43ec-97b3-60d7676f1b12" style="rounded=0;whiteSpace=wrap;html=1;fillColor=#F58828;fontSize=9;fontColor=#000000;align=left;strokeColor=none" value="&lt;p style=&quot;line-height: 100%;&quot;&gt;&lt;br&gt;ActualCountReg1&lt;br&gt;&lt;i&gt;Register&lt;/i&gt;&lt;/p&gt;" vertex="1">
                    <mxGeometry as="geometry" height="80.0" width="380.0" x="170.0" y="1080.0"/>
                </mxCell>
                <mxCell id="a587378d-f8d8-4b1b-bdf9-47e9b802df3f" parent="d50069ec-d9b9-43ec-97b3-60d7676f1b12" style="rounded=0;whiteSpace=wrap;html=1;fillColor=#66B2FF;fontSize=9;fontColor=#000000;align=left;strokeColor=none" value="&lt;p style=&quot;line-height: 100%;&quot;&gt;Count&lt;br&gt;&lt;i&gt;Data&lt;/i&gt;&lt;/p&gt;" vertex="1">
                    <mxGeometry as="geometry" height="60.0" width="290.0" x="250.0" y="1090.0"/>
                </mxCell>
                <mxCell id="f174760f-a498-4461-ae00-13621d35d156" parent="d50069ec-d9b9-43ec-97b3-60d7676f1b12" style="fillColor=#FFFFFF;arrowSize=0.05;shape=singleArrow;direction=west;rounded=0;whiteSpace=wrap;html=1;fontSize=9;arrowWidth=1" value="&lt;p style=&quot;line-height: 100%;&quot;&gt;&lt;/p&gt;" vertex="1">
                    <mxGeometry as="geometry" height="40.0" width="200.0" x="330.0" y="1100.0"/>
                </mxCell>
                <mxCell id="b4945575-146d-43a5-b182-0ce6b35dbd34" parent="d50069ec-d9b9-43ec-97b3-60d7676f1b12" style="rounded=0;whiteSpace=wrap;html=1;fillColor=#F58828;fontSize=9;fontColor=#000000;align=left;strokeColor=none" value="&lt;p style=&quot;line-height: 100%;&quot;&gt;&lt;br&gt;ActualCountReg2&lt;br&gt;&lt;i&gt;Register&lt;/i&gt;&lt;/p&gt;" vertex="1">
                    <mxGeometry as="geometry" height="80.0" width="380.0" x="170.0" y="1170.0"/>
                </mxCell>
                <mxCell id="a98a64f8-62b4-477a-8e57-c43286e75365" parent="d50069ec-d9b9-43ec-97b3-60d7676f1b12" style="rounded=0;whiteSpace=wrap;html=1;fillColor=#66B2FF;fontSize=9;fontColor=#000000;align=left;strokeColor=none" value="&lt;p style=&quot;line-height: 100%;&quot;&gt;Count&lt;br&gt;&lt;i&gt;Data&lt;/i&gt;&lt;/p&gt;" vertex="1">
                    <mxGeometry as="geometry" height="60.0" width="290.0" x="250.0" y="1180.0"/>
                </mxCell>
                <mxCell id="d55d6274-d0d6-4076-b52a-1cef5d557ea3" parent="d50069ec-d9b9-43ec-97b3-60d7676f1b12" style="fillColor=#FFFFFF;arrowSize=0.05;shape=singleArrow;direction=west;rounded=0;whiteSpace=wrap;html=1;fontSize=9;arrowWidth=1" value="&lt;p style=&quot;line-height: 100%;&quot;&gt;&lt;/p&gt;" vertex="1">
                    <mxGeometry as="geometry" height="40.0" width="200.0" x="330.0" y="1190.0"/>
                </mxCell>
                <mxCell id="385585bb-ea38-4000-aef3-1b2baaff8964" parent="d50069ec-d9b9-43ec-97b3-60d7676f1b12" style="rounded=0;whiteSpace=wrap;html=1;fillColor=#F58828;fontSize=9;fontColor=#000000;align=left;strokeColor=none" value="&lt;p style=&quot;line-height: 100%;&quot;&gt;&lt;br&gt;ActualCountReg3&lt;br&gt;&lt;i&gt;Register&lt;/i&gt;&lt;/p&gt;" vertex="1">
                    <mxGeometry as="geometry" height="80.0" width="380.0" x="170.0" y="1260.0"/>
                </mxCell>
                <mxCell id="71b89dfb-8b91-4699-95ed-489673254f09" parent="d50069ec-d9b9-43ec-97b3-60d7676f1b12" style="rounded=0;whiteSpace=wrap;html=1;fillColor=#66B2FF;fontSize=9;fontColor=#000000;align=left;strokeColor=none" value="&lt;p style=&quot;line-height: 100%;&quot;&gt;Count&lt;br&gt;&lt;i&gt;Data&lt;/i&gt;&lt;/p&gt;" vertex="1">
                    <mxGeometry as="geometry" height="60.0" width="290.0" x="250.0" y="1270.0"/>
                </mxCell>
                <mxCell id="f5c49a05-0ee7-4258-b374-baffaf26a309" parent="d50069ec-d9b9-43ec-97b3-60d7676f1b12" style="fillColor=#FFFFFF;arrowSize=0.05;shape=singleArrow;direction=west;rounded=0;whiteSpace=wrap;html=1;fontSize=9;arrowWidth=1" value="&lt;p style=&quot;line-height: 100%;&quot;&gt;&lt;/p&gt;" vertex="1">
                    <mxGeometry as="geometry" height="40.0" width="200.0" x="330.0" y="1280.0"/>
                </mxCell>
                <mxCell id="0a15cd56-d5e8-4e28-8658-1e691cf00029" parent="d50069ec-d9b9-43ec-97b3-60d7676f1b12" style="rounded=0;whiteSpace=wrap;html=1;fillColor=#F58828;fontSize=9;fontColor=#000000;align=left;strokeColor=none" value="&lt;p style=&quot;line-height: 100%;&quot;&gt;&lt;br&gt;FailureCountReg0&lt;br&gt;&lt;i&gt;Register&lt;/i&gt;&lt;/p&gt;" vertex="1">
                    <mxGeometry as="geometry" height="80.0" width="380.0" x="170.0" y="1350.0"/>
                </mxCell>
                <mxCell id="1cb33814-b3f7-4d7c-b483-97567081bf9b" parent="d50069ec-d9b9-43ec-97b3-60d7676f1b12" style="rounded=0;whiteSpace=wrap;html=1;fillColor=#66B2FF;fontSize=9;fontColor=#000000;align=left;strokeColor=none" value="&lt;p style=&quot;line-height: 100%;&quot;&gt;Count&lt;br&gt;&lt;i&gt;Data&lt;/i&gt;&lt;/p&gt;" vertex="1">
                    <mxGeometry as="geometry" height="60.0" width="290.0" x="250.0" y="1360.0"/>
                </mxCell>
                <mxCell id="16c54423-359d-4ca5-a93f-7e782d985b77" parent="d50069ec-d9b9-43ec-97b3-60d7676f1b12" style="fillColor=#FFFFFF;arrowSize=0.05;shape=singleArrow;direction=west;rounded=0;whiteSpace=wrap;html=1;fontSize=9;arrowWidth=1" value="&lt;p style=&quot;line-height: 100%;&quot;&gt;&lt;/p&gt;" vertex="1">
                    <mxGeometry as="geometry" height="40.0" width="200.0" x="330.0" y="1370.0"/>
                </mxCell>
                <mxCell id="3373cc4c-5fb3-4347-8ef6-191a54fcf8c0" parent="d50069ec-d9b9-43ec-97b3-60d7676f1b12" style="rounded=0;whiteSpace=wrap;html=1;fillColor=#F58828;fontSize=9;fontColor=#000000;align=left;strokeColor=none" value="&lt;p style=&quot;line-height: 100%;&quot;&gt;&lt;br&gt;FailureCountReg1&lt;br&gt;&lt;i&gt;Register&lt;/i&gt;&lt;/p&gt;" vertex="1">
                    <mxGeometry as="geometry" height="80.0" width="380.0" x="170.0" y="1440.0"/>
                </mxCell>
                <mxCell id="cadebbb4-fc65-49c4-b04d-aca6da119e13" parent="d50069ec-d9b9-43ec-97b3-60d7676f1b12" style="rounded=0;whiteSpace=wrap;html=1;fillColor=#66B2FF;fontSize=9;fontColor=#000000;align=left;strokeColor=none" value="&lt;p style=&quot;line-height: 100%;&quot;&gt;Count&lt;br&gt;&lt;i&gt;Data&lt;/i&gt;&lt;/p&gt;" vertex="1">
                    <mxGeometry as="geometry" height="60.0" width="290.0" x="250.0" y="1450.0"/>
                </mxCell>
                <mxCell id="c6cbd11e-1ce7-461a-9830-5142245f088b" parent="d50069ec-d9b9-43ec-97b3-60d7676f1b12" style="fillColor=#FFFFFF;arrowSize=0.05;shape=singleArrow;direction=west;rounded=0;whiteSpace=wrap;html=1;fontSize=9;arrowWidth=1" value="&lt;p style=&quot;line-height: 100%;&quot;&gt;&lt;/p&gt;" vertex="1">
                    <mxGeometry as="geometry" height="40.0" width="200.0" x="330.0" y="1460.0"/>
                </mxCell>
                <mxCell id="88999971-825d-419b-a67c-e6695fbe173a" parent="d50069ec-d9b9-43ec-97b3-60d7676f1b12" style="rounded=0;whiteSpace=wrap;html=1;fillColor=#F58828;fontSize=9;fontColor=#000000;align=left;strokeColor=none" value="&lt;p style=&quot;line-height: 100%;&quot;&gt;&lt;br&gt;FailureCountReg2&lt;br&gt;&lt;i&gt;Register&lt;/i&gt;&lt;/p&gt;" vertex="1">
                    <mxGeometry as="geometry" height="80.0" width="380.0" x="170.0" y="1530.0"/>
                </mxCell>
                <mxCell id="d95eb4b2-a42c-4d73-bb11-e36d488891ac" parent="d50069ec-d9b9-43ec-97b3-60d7676f1b12" style="rounded=0;whiteSpace=wrap;html=1;fillColor=#66B2FF;fontSize=9;fontColor=#000000;align=left;strokeColor=none" value="&lt;p style=&quot;line-height: 100%;&quot;&gt;Count&lt;br&gt;&lt;i&gt;Data&lt;/i&gt;&lt;/p&gt;" vertex="1">
                    <mxGeometry as="geometry" height="60.0" width="290.0" x="250.0" y="1540.0"/>
                </mxCell>
                <mxCell id="e183ca9e-3314-44b5-b5ad-86a75d3ab460" parent="d50069ec-d9b9-43ec-97b3-60d7676f1b12" style="fillColor=#FFFFFF;arrowSize=0.05;shape=singleArrow;direction=west;rounded=0;whiteSpace=wrap;html=1;fontSize=9;arrowWidth=1" value="&lt;p style=&quot;line-height: 100%;&quot;&gt;&lt;/p&gt;" vertex="1">
                    <mxGeometry as="geometry" height="40.0" width="200.0" x="330.0" y="1550.0"/>
                </mxCell>
                <mxCell id="bb40a4b1-cede-4f0e-b8f6-3fe275237489" parent="d50069ec-d9b9-43ec-97b3-60d7676f1b12" style="rounded=0;whiteSpace=wrap;html=1;fillColor=#F58828;fontSize=9;fontColor=#000000;align=left;strokeColor=none" value="&lt;p style=&quot;line-height: 100%;&quot;&gt;&lt;br&gt;FailureCountReg3&lt;br&gt;&lt;i&gt;Register&lt;/i&gt;&lt;/p&gt;" vertex="1">
                    <mxGeometry as="geometry" height="80.0" width="380.0" x="170.0" y="1620.0"/>
                </mxCell>
                <mxCell id="1fd6c496-11d6-46d9-93d2-56e2ce5013cd" parent="d50069ec-d9b9-43ec-97b3-60d7676f1b12" style="rounded=0;whiteSpace=wrap;html=1;fillColor=#66B2FF;fontSize=9;fontColor=#000000;align=left;strokeColor=none" value="&lt;p style=&quot;line-height: 100%;&quot;&gt;Count&lt;br&gt;&lt;i&gt;Data&lt;/i&gt;&lt;/p&gt;" vertex="1">
                    <mxGeometry as="geometry" height="60.0" width="290.0" x="250.0" y="1630.0"/>
                </mxCell>
                <mxCell id="e1ffff30-62d7-4539-8bb5-18bbb1db3c1c" parent="d50069ec-d9b9-43ec-97b3-60d7676f1b12" style="fillColor=#FFFFFF;arrowSize=0.05;shape=singleArrow;direction=west;rounded=0;whiteSpace=wrap;html=1;fontSize=9;arrowWidth=1" value="&lt;p style=&quot;line-height: 100%;&quot;&gt;&lt;/p&gt;" vertex="1">
                    <mxGeometry as="geometry" height="40.0" width="200.0" x="330.0" y="1640.0"/>
                </mxCell>
                <mxCell id="35deeae1-3308-44a1-9ca7-0927497fc38d" parent="d50069ec-d9b9-43ec-97b3-60d7676f1b12" style="rounded=0;whiteSpace=wrap;html=1;fillColor=#F58828;fontSize=9;fontColor=#000000;align=left;strokeColor=none" value="&lt;p style=&quot;line-height: 100%;&quot;&gt;IntervalReg0&lt;br&gt;&lt;i&gt;Register&lt;/i&gt;&lt;/p&gt;" vertex="1">
                    <mxGeometry as="geometry" height="80.0" width="380.0" x="170.0" y="1710.0"/>
                </mxCell>
                <mxCell id="a96044b7-386a-4f8e-bbfe-284ecf11ce25" parent="d50069ec-d9b9-43ec-97b3-60d7676f1b12" style="rounded=0;whiteSpace=wrap;html=1;fillColor=#66B2FF;fontSize=9;fontColor=#000000;align=left;strokeColor=none" value="&lt;p style=&quot;line-height: 100%;&quot;&gt;Interval&lt;br&gt;&lt;i&gt;Data&lt;/i&gt;&lt;/p&gt;" vertex="1">
                    <mxGeometry as="geometry" height="60.0" width="290.0" x="250.0" y="1720.0"/>
                </mxCell>
                <mxCell id="deadb52d-f999-4ec0-ab49-7ada0cbabdc9" parent="d50069ec-d9b9-43ec-97b3-60d7676f1b12" style="fillColor=#FFFFFF;arrowSize=0.05;shape=doubleArrow;rounded=0;whiteSpace=wrap;html=1;fontSize=9;arrowWidth=1" value="&lt;p style=&quot;line-height: 100%;&quot;&gt;&lt;/p&gt;" vertex="1">
                    <mxGeometry as="geometry" height="40.0" width="160.0" x="330.0" y="1730.0"/>
                </mxCell>
                <mxCell id="e506175d-c742-4315-982a-2c781117578f" parent="d50069ec-d9b9-43ec-97b3-60d7676f1b12" style="fillColor=#FFFFFF;rounded=0;whiteSpace=wrap;html=1;fontSize=9;arrowWidth=1" value="&lt;p style=&quot;line-height: 100%;&quot;&gt;Reg&lt;/p&gt;" vertex="1">
                    <mxGeometry as="geometry" height="40.0" width="20.0" x="490.0" y="1730.0"/>
                </mxCell>
                <mxCell id="b99bdec6-fcd1-4e5d-8983-4cbefe02e019" parent="d50069ec-d9b9-43ec-97b3-60d7676f1b12" style="fillColor=#FFFFFF;arrowSize=0.5;shape=singleArrow;rounded=0;whiteSpace=wrap;html=1;fontSize=9;arrowWidth=1" vertex="1">
                    <mxGeometry as="geometry" height="40.0" width="20.0" x="510.0" y="1730.0"/>
                </mxCell>
                <mxCell id="3ee27d64-312f-4dfe-9c16-632cb0befded" parent="d50069ec-d9b9-43ec-97b3-60d7676f1b12" style="rounded=0;whiteSpace=wrap;html=1;fillColor=#F58828;fontSize=9;fontColor=#000000;align=left;strokeColor=none" value="&lt;p style=&quot;line-height: 100%;&quot;&gt;IntervalReg1&lt;br&gt;&lt;i&gt;Register&lt;/i&gt;&lt;/p&gt;" vertex="1">
                    <mxGeometry as="geometry" height="80.0" width="380.0" x="170.0" y="1800.0"/>
                </mxCell>
                <mxCell id="0c59110f-0dae-439d-bb7e-64b2d3c91565" parent="d50069ec-d9b9-43ec-97b3-60d7676f1b12" style="rounded=0;whiteSpace=wrap;html=1;fillColor=#66B2FF;fontSize=9;fontColor=#000000;align=left;strokeColor=none" value="&lt;p style=&quot;line-height: 100%;&quot;&gt;Interval&lt;br&gt;&lt;i&gt;Data&lt;/i&gt;&lt;/p&gt;" vertex="1">
                    <mxGeometry as="geometry" height="60.0" width="290.0" x="250.0" y="1810.0"/>
                </mxCell>
                <mxCell id="bbfad28b-e0f3-47ae-a5d1-1e6ee7ce4156" parent="d50069ec-d9b9-43ec-97b3-60d7676f1b12" style="fillColor=#FFFFFF;arrowSize=0.05;shape=doubleArrow;rounded=0;whiteSpace=wrap;html=1;fontSize=9;arrowWidth=1" value="&lt;p style=&quot;line-height: 100%;&quot;&gt;&lt;/p&gt;" vertex="1">
                    <mxGeometry as="geometry" height="40.0" width="160.0" x="330.0" y="1820.0"/>
                </mxCell>
                <mxCell id="8b8ec661-81c3-45ec-bb9b-75e2ca92ceb7" parent="d50069ec-d9b9-43ec-97b3-60d7676f1b12" style="fillColor=#FFFFFF;rounded=0;whiteSpace=wrap;html=1;fontSize=9;arrowWidth=1" value="&lt;p style=&quot;line-height: 100%;&quot;&gt;Reg&lt;/p&gt;" vertex="1">
                    <mxGeometry as="geometry" height="40.0" width="20.0" x="490.0" y="1820.0"/>
                </mxCell>
                <mxCell id="9a496ba9-b1d6-481f-9534-798d31c5f97b" parent="d50069ec-d9b9-43ec-97b3-60d7676f1b12" style="fillColor=#FFFFFF;arrowSize=0.5;shape=singleArrow;rounded=0;whiteSpace=wrap;html=1;fontSize=9;arrowWidth=1" vertex="1">
                    <mxGeometry as="geometry" height="40.0" width="20.0" x="510.0" y="1820.0"/>
                </mxCell>
                <mxCell id="23c2bf52-2747-48b0-b337-e12df414a6b6" parent="d50069ec-d9b9-43ec-97b3-60d7676f1b12" style="rounded=0;whiteSpace=wrap;html=1;fillColor=#F58828;fontSize=9;fontColor=#000000;align=left;strokeColor=none" value="&lt;p style=&quot;line-height: 100%;&quot;&gt;IntervalReg2&lt;br&gt;&lt;i&gt;Register&lt;/i&gt;&lt;/p&gt;" vertex="1">
                    <mxGeometry as="geometry" height="80.0" width="380.0" x="170.0" y="1890.0"/>
                </mxCell>
                <mxCell id="38985242-bd65-4287-b41a-7de9e6cd0564" parent="d50069ec-d9b9-43ec-97b3-60d7676f1b12" style="rounded=0;whiteSpace=wrap;html=1;fillColor=#66B2FF;fontSize=9;fontColor=#000000;align=left;strokeColor=none" value="&lt;p style=&quot;line-height: 100%;&quot;&gt;Interval&lt;br&gt;&lt;i&gt;Data&lt;/i&gt;&lt;/p&gt;" vertex="1">
                    <mxGeometry as="geometry" height="60.0" width="290.0" x="250.0" y="1900.0"/>
                </mxCell>
                <mxCell id="398fc9a0-652e-450b-9bd5-d4fff05cdd98" parent="d50069ec-d9b9-43ec-97b3-60d7676f1b12" style="fillColor=#FFFFFF;arrowSize=0.05;shape=doubleArrow;rounded=0;whiteSpace=wrap;html=1;fontSize=9;arrowWidth=1" value="&lt;p style=&quot;line-height: 100%;&quot;&gt;&lt;/p&gt;" vertex="1">
                    <mxGeometry as="geometry" height="40.0" width="160.0" x="330.0" y="1910.0"/>
                </mxCell>
                <mxCell id="11da851a-777e-460b-a1b0-c320bd372be1" parent="d50069ec-d9b9-43ec-97b3-60d7676f1b12" style="fillColor=#FFFFFF;rounded=0;whiteSpace=wrap;html=1;fontSize=9;arrowWidth=1" value="&lt;p style=&quot;line-height: 100%;&quot;&gt;Reg&lt;/p&gt;" vertex="1">
                    <mxGeometry as="geometry" height="40.0" width="20.0" x="490.0" y="1910.0"/>
                </mxCell>
                <mxCell id="7d69c563-1d8d-47dc-a573-1d9fe0c19958" parent="d50069ec-d9b9-43ec-97b3-60d7676f1b12" style="fillColor=#FFFFFF;arrowSize=0.5;shape=singleArrow;rounded=0;whiteSpace=wrap;html=1;fontSize=9;arrowWidth=1" vertex="1">
                    <mxGeometry as="geometry" height="40.0" width="20.0" x="510.0" y="1910.0"/>
                </mxCell>
                <mxCell id="a77f64b2-a65e-4336-9f03-be584690e200" parent="d50069ec-d9b9-43ec-97b3-60d7676f1b12" style="rounded=0;whiteSpace=wrap;html=1;fillColor=#F58828;fontSize=9;fontColor=#000000;align=left;strokeColor=none" value="&lt;p style=&quot;line-height: 100%;&quot;&gt;IntervalReg3&lt;br&gt;&lt;i&gt;Register&lt;/i&gt;&lt;/p&gt;" vertex="1">
                    <mxGeometry as="geometry" height="80.0" width="380.0" x="170.0" y="1980.0"/>
                </mxCell>
                <mxCell id="9a3cde4c-93e8-4221-88be-61f8a97ac850" parent="d50069ec-d9b9-43ec-97b3-60d7676f1b12" style="rounded=0;whiteSpace=wrap;html=1;fillColor=#66B2FF;fontSize=9;fontColor=#000000;align=left;strokeColor=none" value="&lt;p style=&quot;line-height: 100%;&quot;&gt;Interval&lt;br&gt;&lt;i&gt;Data&lt;/i&gt;&lt;/p&gt;" vertex="1">
                    <mxGeometry as="geometry" height="60.0" width="290.0" x="250.0" y="1990.0"/>
                </mxCell>
                <mxCell id="90732f02-f5d0-4725-add9-108d1b671e18" parent="d50069ec-d9b9-43ec-97b3-60d7676f1b12" style="fillColor=#FFFFFF;arrowSize=0.05;shape=doubleArrow;rounded=0;whiteSpace=wrap;html=1;fontSize=9;arrowWidth=1" value="&lt;p style=&quot;line-height: 100%;&quot;&gt;&lt;/p&gt;" vertex="1">
                    <mxGeometry as="geometry" height="40.0" width="160.0" x="330.0" y="2000.0"/>
                </mxCell>
                <mxCell id="93e1568a-c048-4ee7-8f53-71ed309e24e3" parent="d50069ec-d9b9-43ec-97b3-60d7676f1b12" style="fillColor=#FFFFFF;rounded=0;whiteSpace=wrap;html=1;fontSize=9;arrowWidth=1" value="&lt;p style=&quot;line-height: 100%;&quot;&gt;Reg&lt;/p&gt;" vertex="1">
                    <mxGeometry as="geometry" height="40.0" width="20.0" x="490.0" y="2000.0"/>
                </mxCell>
                <mxCell id="797c0ee0-ab85-4404-8424-7e1374775c4a" parent="d50069ec-d9b9-43ec-97b3-60d7676f1b12" style="fillColor=#FFFFFF;arrowSize=0.5;shape=singleArrow;rounded=0;whiteSpace=wrap;html=1;fontSize=9;arrowWidth=1" vertex="1">
                    <mxGeometry as="geometry" height="40.0" width="20.0" x="510.0" y="2000.0"/>
                </mxCell>
                <mxCell id="b7052c24-7f23-474b-afb6-cb9ccd13df2b" parent="d50069ec-d9b9-43ec-97b3-60d7676f1b12" style="rounded=0;whiteSpace=wrap;html=1;fillColor=#F58828;fontSize=9;fontColor=#000000;align=left;strokeColor=none" value="&lt;p style=&quot;line-height: 100%;&quot;&gt;ReferenceCount&lt;br&gt;Reg0&lt;br&gt;&lt;i&gt;Register&lt;/i&gt;&lt;/p&gt;" vertex="1">
                    <mxGeometry as="geometry" height="120.0" width="380.0" x="170.0" y="2070.0"/>
                </mxCell>
                <mxCell id="561a00b1-a393-4d63-95e7-13433d21e678" parent="d50069ec-d9b9-43ec-97b3-60d7676f1b12" style="rounded=0;whiteSpace=wrap;html=1;fillColor=#66B2FF;fontSize=9;fontColor=#000000;align=left;strokeColor=none" value="&lt;p style=&quot;line-height: 100%;&quot;&gt;Count&lt;br&gt;&lt;i&gt;Data&lt;/i&gt;&lt;/p&gt;" vertex="1">
                    <mxGeometry as="geometry" height="60.0" width="290.0" x="250.0" y="2080.0"/>
                </mxCell>
                <mxCell id="89676764-792e-460a-9c31-c30415080194" parent="d50069ec-d9b9-43ec-97b3-60d7676f1b12" style="fillColor=#FFFFFF;arrowSize=0.05;shape=doubleArrow;rounded=0;whiteSpace=wrap;html=1;fontSize=9;arrowWidth=1" value="&lt;p style=&quot;line-height: 100%;&quot;&gt;&lt;/p&gt;" vertex="1">
                    <mxGeometry as="geometry" height="40.0" width="160.0" x="330.0" y="2090.0"/>
                </mxCell>
                <mxCell id="9e1f5855-13cd-4bac-a9ab-83461aeb85f8" parent="d50069ec-d9b9-43ec-97b3-60d7676f1b12" style="fillColor=#FFFFFF;rounded=0;whiteSpace=wrap;html=1;fontSize=9;arrowWidth=1" value="&lt;p style=&quot;line-height: 100%;&quot;&gt;Reg&lt;/p&gt;" vertex="1">
                    <mxGeometry as="geometry" height="40.0" width="20.0" x="490.0" y="2090.0"/>
                </mxCell>
                <mxCell id="f438e575-6e04-439e-ad3a-7450e2b2597c" parent="d50069ec-d9b9-43ec-97b3-60d7676f1b12" style="fillColor=#FFFFFF;arrowSize=0.5;shape=singleArrow;rounded=0;whiteSpace=wrap;html=1;fontSize=9;arrowWidth=1" vertex="1">
                    <mxGeometry as="geometry" height="40.0" width="20.0" x="510.0" y="2090.0"/>
                </mxCell>
                <mxCell id="42e40dca-b532-4498-a0db-933bf94c0922" parent="d50069ec-d9b9-43ec-97b3-60d7676f1b12" style="fillColor=#CCCCCC;arrowSize=0.05;shape=singleArrow;rounded=0;whiteSpace=wrap;html=1;fontSize=9;arrowWidth=1" value="&lt;p style=&quot;line-height: 100%;&quot;&gt;WReg&lt;br&gt;&lt;i&gt;Pulse&lt;/i&gt;&lt;/p&gt;" vertex="1">
                    <mxGeometry as="geometry" height="30.0" width="200.0" x="330.0" y="2150.0"/>
                </mxCell>
                <mxCell id="b9579852-06b8-4a61-894e-376a22055255" parent="d50069ec-d9b9-43ec-97b3-60d7676f1b12" style="rounded=0;whiteSpace=wrap;html=1;fillColor=#F58828;fontSize=9;fontColor=#000000;align=left;strokeColor=none" value="&lt;p style=&quot;line-height: 100%;&quot;&gt;ReferenceCount&lt;br&gt;Reg1&lt;br&gt;&lt;i&gt;Register&lt;/i&gt;&lt;/p&gt;" vertex="1">
                    <mxGeometry as="geometry" height="120.0" width="380.0" x="170.0" y="2200.0"/>
                </mxCell>
                <mxCell id="ef626b63-6d93-4e69-af63-ca57ace769e0" parent="d50069ec-d9b9-43ec-97b3-60d7676f1b12" style="rounded=0;whiteSpace=wrap;html=1;fillColor=#66B2FF;fontSize=9;fontColor=#000000;align=left;strokeColor=none" value="&lt;p style=&quot;line-height: 100%;&quot;&gt;Count&lt;br&gt;&lt;i&gt;Data&lt;/i&gt;&lt;/p&gt;" vertex="1">
                    <mxGeometry as="geometry" height="60.0" width="290.0" x="250.0" y="2210.0"/>
                </mxCell>
                <mxCell id="bb1efde8-4917-42f2-a060-1a518b943501" parent="d50069ec-d9b9-43ec-97b3-60d7676f1b12" style="fillColor=#FFFFFF;arrowSize=0.05;shape=doubleArrow;rounded=0;whiteSpace=wrap;html=1;fontSize=9;arrowWidth=1" value="&lt;p style=&quot;line-height: 100%;&quot;&gt;&lt;/p&gt;" vertex="1">
                    <mxGeometry as="geometry" height="40.0" width="160.0" x="330.0" y="2220.0"/>
                </mxCell>
                <mxCell id="69228e06-02ac-47ad-95d3-c9ced8325095" parent="d50069ec-d9b9-43ec-97b3-60d7676f1b12" style="fillColor=#FFFFFF;rounded=0;whiteSpace=wrap;html=1;fontSize=9;arrowWidth=1" value="&lt;p style=&quot;line-height: 100%;&quot;&gt;Reg&lt;/p&gt;" vertex="1">
                    <mxGeometry as="geometry" height="40.0" width="20.0" x="490.0" y="2220.0"/>
                </mxCell>
                <mxCell id="522aa1ab-d00b-406d-88e4-0e3680a7633d" parent="d50069ec-d9b9-43ec-97b3-60d7676f1b12" style="fillColor=#FFFFFF;arrowSize=0.5;shape=singleArrow;rounded=0;whiteSpace=wrap;html=1;fontSize=9;arrowWidth=1" vertex="1">
                    <mxGeometry as="geometry" height="40.0" width="20.0" x="510.0" y="2220.0"/>
                </mxCell>
                <mxCell id="6d042a81-3432-4741-91f3-ea5bd98f6c35" parent="d50069ec-d9b9-43ec-97b3-60d7676f1b12" style="fillColor=#CCCCCC;arrowSize=0.05;shape=singleArrow;rounded=0;whiteSpace=wrap;html=1;fontSize=9;arrowWidth=1" value="&lt;p style=&quot;line-height: 100%;&quot;&gt;WReg&lt;br&gt;&lt;i&gt;Pulse&lt;/i&gt;&lt;/p&gt;" vertex="1">
                    <mxGeometry as="geometry" height="30.0" width="200.0" x="330.0" y="2280.0"/>
                </mxCell>
                <mxCell id="288ddf5d-9b53-484e-8946-0b70a7a443d2" parent="d50069ec-d9b9-43ec-97b3-60d7676f1b12" style="rounded=0;whiteSpace=wrap;html=1;fillColor=#F58828;fontSize=9;fontColor=#000000;align=left;strokeColor=none" value="&lt;p style=&quot;line-height: 100%;&quot;&gt;ReferenceCount&lt;br&gt;Reg2&lt;br&gt;&lt;i&gt;Register&lt;/i&gt;&lt;/p&gt;" vertex="1">
                    <mxGeometry as="geometry" height="120.0" width="380.0" x="170.0" y="2330.0"/>
                </mxCell>
                <mxCell id="f39a612a-7409-4be9-a8ef-3c49658806b1" parent="d50069ec-d9b9-43ec-97b3-60d7676f1b12" style="rounded=0;whiteSpace=wrap;html=1;fillColor=#66B2FF;fontSize=9;fontColor=#000000;align=left;strokeColor=none" value="&lt;p style=&quot;line-height: 100%;&quot;&gt;Count&lt;br&gt;&lt;i&gt;Data&lt;/i&gt;&lt;/p&gt;" vertex="1">
                    <mxGeometry as="geometry" height="60.0" width="290.0" x="250.0" y="2340.0"/>
                </mxCell>
                <mxCell id="0e77211d-ee65-4110-8403-9114411d0e4c" parent="d50069ec-d9b9-43ec-97b3-60d7676f1b12" style="fillColor=#FFFFFF;arrowSize=0.05;shape=doubleArrow;rounded=0;whiteSpace=wrap;html=1;fontSize=9;arrowWidth=1" value="&lt;p style=&quot;line-height: 100%;&quot;&gt;&lt;/p&gt;" vertex="1">
                    <mxGeometry as="geometry" height="40.0" width="160.0" x="330.0" y="2350.0"/>
                </mxCell>
                <mxCell id="098b3b02-504b-49e8-a5f5-5c64453f3b41" parent="d50069ec-d9b9-43ec-97b3-60d7676f1b12" style="fillColor=#FFFFFF;rounded=0;whiteSpace=wrap;html=1;fontSize=9;arrowWidth=1" value="&lt;p style=&quot;line-height: 100%;&quot;&gt;Reg&lt;/p&gt;" vertex="1">
                    <mxGeometry as="geometry" height="40.0" width="20.0" x="490.0" y="2350.0"/>
                </mxCell>
                <mxCell id="3e79526c-3e95-4e90-85b8-a74e72fced2b" parent="d50069ec-d9b9-43ec-97b3-60d7676f1b12" style="fillColor=#FFFFFF;arrowSize=0.5;shape=singleArrow;rounded=0;whiteSpace=wrap;html=1;fontSize=9;arrowWidth=1" vertex="1">
                    <mxGeometry as="geometry" height="40.0" width="20.0" x="510.0" y="2350.0"/>
                </mxCell>
                <mxCell id="31f193c0-76d4-409f-9f27-e8ecf9011f8e" parent="d50069ec-d9b9-43ec-97b3-60d7676f1b12" style="fillColor=#CCCCCC;arrowSize=0.05;shape=singleArrow;rounded=0;whiteSpace=wrap;html=1;fontSize=9;arrowWidth=1" value="&lt;p style=&quot;line-height: 100%;&quot;&gt;WReg&lt;br&gt;&lt;i&gt;Pulse&lt;/i&gt;&lt;/p&gt;" vertex="1">
                    <mxGeometry as="geometry" height="30.0" width="200.0" x="330.0" y="2410.0"/>
                </mxCell>
                <mxCell id="8213e9aa-0b07-4944-b497-1eddf3730637" parent="d50069ec-d9b9-43ec-97b3-60d7676f1b12" style="rounded=0;whiteSpace=wrap;html=1;fillColor=#F58828;fontSize=9;fontColor=#000000;align=left;strokeColor=none" value="&lt;p style=&quot;line-height: 100%;&quot;&gt;ReferenceCount&lt;br&gt;Reg3&lt;br&gt;&lt;i&gt;Register&lt;/i&gt;&lt;/p&gt;" vertex="1">
                    <mxGeometry as="geometry" height="120.0" width="380.0" x="170.0" y="2460.0"/>
                </mxCell>
                <mxCell id="84599786-6ad1-4781-9948-008861951c53" parent="d50069ec-d9b9-43ec-97b3-60d7676f1b12" style="rounded=0;whiteSpace=wrap;html=1;fillColor=#66B2FF;fontSize=9;fontColor=#000000;align=left;strokeColor=none" value="&lt;p style=&quot;line-height: 100%;&quot;&gt;Count&lt;br&gt;&lt;i&gt;Data&lt;/i&gt;&lt;/p&gt;" vertex="1">
                    <mxGeometry as="geometry" height="60.0" width="290.0" x="250.0" y="2470.0"/>
                </mxCell>
                <mxCell id="4b628a4f-db32-43b2-9e7f-af029545b2c0" parent="d50069ec-d9b9-43ec-97b3-60d7676f1b12" style="fillColor=#FFFFFF;arrowSize=0.05;shape=doubleArrow;rounded=0;whiteSpace=wrap;html=1;fontSize=9;arrowWidth=1" value="&lt;p style=&quot;line-height: 100%;&quot;&gt;&lt;/p&gt;" vertex="1">
                    <mxGeometry as="geometry" height="40.0" width="160.0" x="330.0" y="2480.0"/>
                </mxCell>
                <mxCell id="6fb64384-5857-44a7-86fd-060512415035" parent="d50069ec-d9b9-43ec-97b3-60d7676f1b12" style="fillColor=#FFFFFF;rounded=0;whiteSpace=wrap;html=1;fontSize=9;arrowWidth=1" value="&lt;p style=&quot;line-height: 100%;&quot;&gt;Reg&lt;/p&gt;" vertex="1">
                    <mxGeometry as="geometry" height="40.0" width="20.0" x="490.0" y="2480.0"/>
                </mxCell>
                <mxCell id="d13a5c08-43b1-4dba-bd38-721ddddc88e7" parent="d50069ec-d9b9-43ec-97b3-60d7676f1b12" style="fillColor=#FFFFFF;arrowSize=0.5;shape=singleArrow;rounded=0;whiteSpace=wrap;html=1;fontSize=9;arrowWidth=1" vertex="1">
                    <mxGeometry as="geometry" height="40.0" width="20.0" x="510.0" y="2480.0"/>
                </mxCell>
                <mxCell id="18bb5bf2-c1aa-4b63-a2dd-8c58508fa6c7" parent="d50069ec-d9b9-43ec-97b3-60d7676f1b12" style="fillColor=#CCCCCC;arrowSize=0.05;shape=singleArrow;rounded=0;whiteSpace=wrap;html=1;fontSize=9;arrowWidth=1" value="&lt;p style=&quot;line-height: 100%;&quot;&gt;WReg&lt;br&gt;&lt;i&gt;Pulse&lt;/i&gt;&lt;/p&gt;" vertex="1">
                    <mxGeometry as="geometry" height="30.0" width="200.0" x="330.0" y="2540.0"/>
                </mxCell>
                <mxCell id="c867c7d7-40c1-4df2-816e-b33b66114058" parent="d50069ec-d9b9-43ec-97b3-60d7676f1b12" style="fillColor=none;verticalAlign=middle;labelBorderColor=none;fontSize=20;align=center;fontStyle=1;strokeColor=none;fontColor=#F58828;rounded=0;whiteSpace=wrap;html=1" value="&lt;p style=&quot;line-height: 100%;&quot;&gt;HxS&lt;/p&gt;" vertex="1">
                    <mxGeometry as="geometry" height="30.0" width="50.0" x="10.0" y="2570.0"/>
                </mxCell>
            </root>
        </mxGraphModel>
    </diagram>
    <diagram id="bc74cc82-faa7-4a5c-89ca-1691ebd4e0c7" name="Slice0">
        <mxGraphModel arrows="1" connect="1" fold="1" grid="1" gridSize="10" guides="1" math="0" page="1" pageScale="1" shadow="0" tooltips="1">
            <root>
                <mxCell id="0"/>
                <mxCell id="1" parent="0"/>
                <mxCell id="770b73e2-aed6-4353-90c4-a2bc45edcdfa" parent="0" value="Foreground"/>
                <mxCell id="295b6135-52f8-43d8-9b7b-685b93d00eb8" parent="770b73e2-aed6-4353-90c4-a2bc45edcdfa" style="shape=document;size=0.012345679012345678;rounded=0;whiteSpace=wrap;html=1;fillColor=#253F8E;fontSize=9;fontColor=#FFFFFF;align=left;strokeColor=none" value="&lt;p style=&quot;line-height: 100%;&quot;&gt;Interrupt&lt;br&gt;GeneratorIfc&lt;br&gt;&lt;i&gt;Interface&lt;/i&gt;&lt;br&gt;...&lt;/p&gt;" vertex="1">
                    <mxGeometry as="geometry" height="810.0" width="560.0" x="10.0" y="10.0"/>
                </mxCell>
                <mxCell id="975c8e20-e319-49ce-9894-aae58c23862b" parent="770b73e2-aed6-4353-90c4-a2bc45edcdfa" style="shape=document;size=0.012658227848101266;rounded=0;whiteSpace=wrap;html=1;fillColor=#00CCCC;fontSize=9;fontColor=#000000;align=left;strokeColor=none" value="&lt;p style=&quot;line-height: 100%;&quot;&gt;Interrupt&lt;br&gt;GeneratorBlk&lt;br&gt;&lt;i&gt;Block&lt;/i&gt;&lt;br&gt;...&lt;/p&gt;" vertex="1">
                    <mxGeometry as="geometry" height="790.0" width="470.0" x="90.0" y="20.0"/>
                </mxCell>
                <mxCell id="4bd8e08b-ad30-45ba-96ca-30f8b6bf2d66" parent="770b73e2-aed6-4353-90c4-a2bc45edcdfa" style="rounded=0;whiteSpace=wrap;html=1;fillColor=#F58828;fontSize=9;fontColor=#000000;align=left;strokeColor=none" value="&lt;p style=&quot;line-height: 100%;&quot;&gt;ControlReg&lt;br&gt;&lt;i&gt;Register&lt;/i&gt;&lt;/p&gt;" vertex="1">
                    <mxGeometry as="geometry" height="290.0" width="380.0" x="170.0" y="30.0"/>
                </mxCell>
                <mxCell id="457cdfd8-1417-412a-a95e-0a49c7416019" parent="770b73e2-aed6-4353-90c4-a2bc45edcdfa" style="rounded=0;whiteSpace=wrap;html=1;fillColor=#F19C99;fontSize=9;fontColor=#000000;align=left;strokeColor=none" value="&lt;p style=&quot;line-height: 100%;&quot;&gt;Channel&lt;br&gt;Operation0&lt;br&gt;&lt;i&gt;Enum&lt;/i&gt;&lt;/p&gt;" vertex="1">
                    <mxGeometry as="geometry" height="60.0" width="290.0" x="250.0" y="40.0"/>
                </mxCell>
                <mxCell id="79bbc322-5c8f-4797-a93b-e9be3bdc8ceb" parent="770b73e2-aed6-4353-90c4-a2bc45edcdfa" style="fillColor=#FFFFFF;arrowSize=0.05;shape=doubleArrow;rounded=0;whiteSpace=wrap;html=1;fontSize=9;arrowWidth=1" value="&lt;p style=&quot;line-height: 100%;&quot;&gt;&lt;/p&gt;" vertex="1">
                    <mxGeometry as="geometry" height="40.0" width="160.0" x="330.0" y="50.0"/>
                </mxCell>
                <mxCell id="f8040041-14dd-4e01-9bb8-6f61be669567" parent="770b73e2-aed6-4353-90c4-a2bc45edcdfa" style="fillColor=#FFFFFF;rounded=0;whiteSpace=wrap;html=1;fontSize=9;arrowWidth=1" value="&lt;p style=&quot;line-height: 100%;&quot;&gt;Reg&lt;/p&gt;" vertex="1">
                    <mxGeometry as="geometry" height="40.0" width="20.0" x="490.0" y="50.0"/>
                </mxCell>
                <mxCell id="f717df6f-d5f9-44bd-b890-4bc99bd17ef0" parent="770b73e2-aed6-4353-90c4-a2bc45edcdfa" style="fillColor=#FFFFFF;arrowSize=0.5;shape=singleArrow;rounded=0;whiteSpace=wrap;html=1;fontSize=9;arrowWidth=1" vertex="1">
                    <mxGeometry as="geometry" height="40.0" width="20.0" x="510.0" y="50.0"/>
                </mxCell>
                <mxCell id="94544f0e-1a71-4806-9ef8-b970093d3a39" parent="770b73e2-aed6-4353-90c4-a2bc45edcdfa" style="rounded=0;whiteSpace=wrap;html=1;fillColor=#F19C99;fontSize=9;fontColor=#000000;align=left;strokeColor=none" value="&lt;p style=&quot;line-height: 100%;&quot;&gt;Channel&lt;br&gt;Operation1&lt;br&gt;&lt;i&gt;Enum&lt;/i&gt;&lt;/p&gt;" vertex="1">
                    <mxGeometry as="geometry" height="60.0" width="290.0" x="250.0" y="110.0"/>
                </mxCell>
                <mxCell id="9fc5484a-01a8-48e9-9d0c-29e422c929c9" parent="770b73e2-aed6-4353-90c4-a2bc45edcdfa" style="fillColor=#FFFFFF;arrowSize=0.05;shape=doubleArrow;rounded=0;whiteSpace=wrap;html=1;fontSize=9;arrowWidth=1" value="&lt;p style=&quot;line-height: 100%;&quot;&gt;&lt;/p&gt;" vertex="1">
                    <mxGeometry as="geometry" height="40.0" width="160.0" x="330.0" y="120.0"/>
                </mxCell>
                <mxCell id="f1fb35ec-8c87-4f83-82a2-661dc600a12b" parent="770b73e2-aed6-4353-90c4-a2bc45edcdfa" style="fillColor=#FFFFFF;rounded=0;whiteSpace=wrap;html=1;fontSize=9;arrowWidth=1" value="&lt;p style=&quot;line-height: 100%;&quot;&gt;Reg&lt;/p&gt;" vertex="1">
                    <mxGeometry as="geometry" height="40.0" width="20.0" x="490.0" y="120.0"/>
                </mxCell>
                <mxCell id="b8752441-bebc-45e0-80b4-36173d6175a4" parent="770b73e2-aed6-4353-90c4-a2bc45edcdfa" style="fillColor=#FFFFFF;arrowSize=0.5;shape=singleArrow;rounded=0;whiteSpace=wrap;html=1;fontSize=9;arrowWidth=1" vertex="1">
                    <mxGeometry as="geometry" height="40.0" width="20.0" x="510.0" y="120.0"/>
                </mxCell>
                <mxCell id="1d52fab9-e488-460d-8a45-00efda792d05" parent="770b73e2-aed6-4353-90c4-a2bc45edcdfa" style="rounded=0;whiteSpace=wrap;html=1;fillColor=#F19C99;fontSize=9;fontColor=#000000;align=left;strokeColor=none" value="&lt;p style=&quot;line-height: 100%;&quot;&gt;Channel&lt;br&gt;Operation2&lt;br&gt;&lt;i&gt;Enum&lt;/i&gt;&lt;/p&gt;" vertex="1">
                    <mxGeometry as="geometry" height="60.0" width="290.0" x="250.0" y="180.0"/>
                </mxCell>
                <mxCell id="67a680eb-1e6b-447d-9f7a-8b7ff5c3bf45" parent="770b73e2-aed6-4353-90c4-a2bc45edcdfa" style="fillColor=#FFFFFF;arrowSize=0.05;shape=doubleArrow;rounded=0;whiteSpace=wrap;html=1;fontSize=9;arrowWidth=1" value="&lt;p style=&quot;line-height: 100%;&quot;&gt;&lt;/p&gt;" vertex="1">
                    <mxGeometry as="geometry" height="40.0" width="160.0" x="330.0" y="190.0"/>
                </mxCell>
                <mxCell id="47e3f57e-8d7d-46f7-8c4a-270348806ae1" parent="770b73e2-aed6-4353-90c4-a2bc45edcdfa" style="fillColor=#FFFFFF;rounded=0;whiteSpace=wrap;html=1;fontSize=9;arrowWidth=1" value="&lt;p style=&quot;line-height: 100%;&quot;&gt;Reg&lt;/p&gt;" vertex="1">
                    <mxGeometry as="geometry" height="40.0" width="20.0" x="490.0" y="190.0"/>
                </mxCell>
                <mxCell id="ff8fc97a-0d0a-4143-9d24-7c3d02f9ef51" parent="770b73e2-aed6-4353-90c4-a2bc45edcdfa" style="fillColor=#FFFFFF;arrowSize=0.5;shape=singleArrow;rounded=0;whiteSpace=wrap;html=1;fontSize=9;arrowWidth=1" vertex="1">
                    <mxGeometry as="geometry" height="40.0" width="20.0" x="510.0" y="190.0"/>
                </mxCell>
                <mxCell id="f8456777-68be-4b98-b938-3078235ef9f6" parent="770b73e2-aed6-4353-90c4-a2bc45edcdfa" style="rounded=0;whiteSpace=wrap;html=1;fillColor=#F19C99;fontSize=9;fontColor=#000000;align=left;strokeColor=none" value="&lt;p style=&quot;line-height: 100%;&quot;&gt;Channel&lt;br&gt;Operation3&lt;br&gt;&lt;i&gt;Enum&lt;/i&gt;&lt;/p&gt;" vertex="1">
                    <mxGeometry as="geometry" height="60.0" width="290.0" x="250.0" y="250.0"/>
                </mxCell>
                <mxCell id="3936e4ed-be90-4125-9300-584e45063fdd" parent="770b73e2-aed6-4353-90c4-a2bc45edcdfa" style="fillColor=#FFFFFF;arrowSize=0.05;shape=doubleArrow;rounded=0;whiteSpace=wrap;html=1;fontSize=9;arrowWidth=1" value="&lt;p style=&quot;line-height: 100%;&quot;&gt;&lt;/p&gt;" vertex="1">
                    <mxGeometry as="geometry" height="40.0" width="160.0" x="330.0" y="260.0"/>
                </mxCell>
                <mxCell id="389f255f-216e-4243-a9ab-6c31db8416a9" parent="770b73e2-aed6-4353-90c4-a2bc45edcdfa" style="fillColor=#FFFFFF;rounded=0;whiteSpace=wrap;html=1;fontSize=9;arrowWidth=1" value="&lt;p style=&quot;line-height: 100%;&quot;&gt;Reg&lt;/p&gt;" vertex="1">
                    <mxGeometry as="geometry" height="40.0" width="20.0" x="490.0" y="260.0"/>
                </mxCell>
                <mxCell id="bebbf3ba-57f1-4a21-889e-e2dc6928da9d" parent="770b73e2-aed6-4353-90c4-a2bc45edcdfa" style="fillColor=#FFFFFF;arrowSize=0.5;shape=singleArrow;rounded=0;whiteSpace=wrap;html=1;fontSize=9;arrowWidth=1" vertex="1">
                    <mxGeometry as="geometry" height="40.0" width="20.0" x="510.0" y="260.0"/>
                </mxCell>
                <mxCell id="49b00884-9932-4124-ac1d-8efd8cd8a550" parent="770b73e2-aed6-4353-90c4-a2bc45edcdfa" style="rounded=0;whiteSpace=wrap;html=1;fillColor=#F58828;fontSize=9;fontColor=#000000;align=left;strokeColor=none" value="&lt;p style=&quot;line-height: 100%;&quot;&gt;StatusReg&lt;br&gt;&lt;i&gt;Register&lt;/i&gt;&lt;/p&gt;" vertex="1">
                    <mxGeometry as="geometry" height="290.0" width="380.0" x="170.0" y="330.0"/>
                </mxCell>
                <mxCell id="2e505b1d-54c6-40ae-a792-04e91f36f13d" parent="770b73e2-aed6-4353-90c4-a2bc45edcdfa" style="rounded=0;whiteSpace=wrap;html=1;fillColor=#F19C99;fontSize=9;fontColor=#000000;align=left;strokeColor=none" value="&lt;p style=&quot;line-height: 100%;&quot;&gt;ChannelStatus0&lt;br&gt;&lt;i&gt;Enum&lt;/i&gt;&lt;/p&gt;" vertex="1">
                    <mxGeometry as="geometry" height="60.0" width="290.0" x="250.0" y="340.0"/>
                </mxCell>
                <mxCell id="d19f0322-6aa7-4cdf-b8c5-fbd050ab95c0" parent="770b73e2-aed6-4353-90c4-a2bc45edcdfa" style="fillColor=#FFFFFF;arrowSize=0.05;shape=singleArrow;direction=west;rounded=0;whiteSpace=wrap;html=1;fontSize=9;arrowWidth=1" value="&lt;p style=&quot;line-height: 100%;&quot;&gt;Idle, Operating, Ended&lt;br&gt;&lt;i&gt;Values&lt;/i&gt;&lt;/p&gt;" vertex="1">
                    <mxGeometry as="geometry" height="40.0" width="200.0" x="330.0" y="350.0"/>
                </mxCell>
                <mxCell id="a2358935-ce85-4088-be2a-4077721143ff" parent="770b73e2-aed6-4353-90c4-a2bc45edcdfa" style="rounded=0;whiteSpace=wrap;html=1;fillColor=#F19C99;fontSize=9;fontColor=#000000;align=left;strokeColor=none" value="&lt;p style=&quot;line-height: 100%;&quot;&gt;ChannelStatus1&lt;br&gt;&lt;i&gt;Enum&lt;/i&gt;&lt;/p&gt;" vertex="1">
                    <mxGeometry as="geometry" height="60.0" width="290.0" x="250.0" y="410.0"/>
                </mxCell>
                <mxCell id="365f6b31-a918-46b0-9832-7456c4198736" parent="770b73e2-aed6-4353-90c4-a2bc45edcdfa" style="fillColor=#FFFFFF;arrowSize=0.05;shape=singleArrow;direction=west;rounded=0;whiteSpace=wrap;html=1;fontSize=9;arrowWidth=1" value="&lt;p style=&quot;line-height: 100%;&quot;&gt;Idle, Operating, Ended&lt;br&gt;&lt;i&gt;Values&lt;/i&gt;&lt;/p&gt;" vertex="1">
                    <mxGeometry as="geometry" height="40.0" width="200.0" x="330.0" y="420.0"/>
                </mxCell>
                <mxCell id="f0c11737-c34b-4647-885a-0f5aa6315e5d" parent="770b73e2-aed6-4353-90c4-a2bc45edcdfa" style="rounded=0;whiteSpace=wrap;html=1;fillColor=#F19C99;fontSize=9;fontColor=#000000;align=left;strokeColor=none" value="&lt;p style=&quot;line-height: 100%;&quot;&gt;ChannelStatus2&lt;br&gt;&lt;i&gt;Enum&lt;/i&gt;&lt;/p&gt;" vertex="1">
                    <mxGeometry as="geometry" height="60.0" width="290.0" x="250.0" y="480.0"/>
                </mxCell>
                <mxCell id="d0e7bc9c-b6f4-4799-9514-207c6793d759" parent="770b73e2-aed6-4353-90c4-a2bc45edcdfa" style="fillColor=#FFFFFF;arrowSize=0.05;shape=singleArrow;direction=west;rounded=0;whiteSpace=wrap;html=1;fontSize=9;arrowWidth=1" value="&lt;p style=&quot;line-height: 100%;&quot;&gt;Idle, Operating, Ended&lt;br&gt;&lt;i&gt;Values&lt;/i&gt;&lt;/p&gt;" vertex="1">
                    <mxGeometry as="geometry" height="40.0" width="200.0" x="330.0" y="490.0"/>
                </mxCell>
                <mxCell id="609a4efd-b0c8-439c-9ca3-70a9654feb77" parent="770b73e2-aed6-4353-90c4-a2bc45edcdfa" style="rounded=0;whiteSpace=wrap;html=1;fillColor=#F19C99;fontSize=9;fontColor=#000000;align=left;strokeColor=none" value="&lt;p style=&quot;line-height: 100%;&quot;&gt;ChannelStatus3&lt;br&gt;&lt;i&gt;Enum&lt;/i&gt;&lt;/p&gt;" vertex="1">
                    <mxGeometry as="geometry" height="60.0" width="290.0" x="250.0" y="550.0"/>
                </mxCell>
                <mxCell id="06168013-3a15-4922-bb6d-23b1ae09df85" parent="770b73e2-aed6-4353-90c4-a2bc45edcdfa" style="fillColor=#FFFFFF;arrowSize=0.05;shape=singleArrow;direction=west;rounded=0;whiteSpace=wrap;html=1;fontSize=9;arrowWidth=1" value="&lt;p style=&quot;line-height: 100%;&quot;&gt;Idle, Operating, Ended&lt;br&gt;&lt;i&gt;Values&lt;/i&gt;&lt;/p&gt;" vertex="1">
                    <mxGeometry as="geometry" height="40.0" width="200.0" x="330.0" y="560.0"/>
                </mxCell>
                <mxCell id="52b1a0eb-8bcd-42aa-8edd-7a2f67f825c5" parent="770b73e2-aed6-4353-90c4-a2bc45edcdfa" style="rounded=0;whiteSpace=wrap;html=1;fillColor=#F58828;fontSize=9;fontColor=#000000;align=left;strokeColor=none" value="&lt;p style=&quot;line-height: 100%;&quot;&gt;&lt;br&gt;ChargedCountReg0&lt;br&gt;&lt;i&gt;Register&lt;/i&gt;&lt;/p&gt;" vertex="1">
                    <mxGeometry as="geometry" height="80.0" width="380.0" x="170.0" y="630.0"/>
                </mxCell>
                <mxCell id="42b4c22b-0f38-44aa-9471-9186e54e93a6" parent="770b73e2-aed6-4353-90c4-a2bc45edcdfa" style="rounded=0;whiteSpace=wrap;html=1;fillColor=#66B2FF;fontSize=9;fontColor=#000000;align=left;strokeColor=none" value="&lt;p style=&quot;line-height: 100%;&quot;&gt;Count&lt;br&gt;&lt;i&gt;Data&lt;/i&gt;&lt;/p&gt;" vertex="1">
                    <mxGeometry as="geometry" height="60.0" width="290.0" x="250.0" y="640.0"/>
                </mxCell>
                <mxCell id="8d69edaf-568f-4830-b64a-06cca2b66f91" parent="770b73e2-aed6-4353-90c4-a2bc45edcdfa" style="fillColor=#FFFFFF;arrowSize=0.05;shape=doubleArrow;rounded=0;whiteSpace=wrap;html=1;fontSize=9;arrowWidth=1" value="&lt;p style=&quot;line-height: 100%;&quot;&gt;&lt;/p&gt;" vertex="1">
                    <mxGeometry as="geometry" height="40.0" width="160.0" x="330.0" y="650.0"/>
                </mxCell>
                <mxCell id="4101b9b6-27ec-41e7-baf5-89273971ee10" parent="770b73e2-aed6-4353-90c4-a2bc45edcdfa" style="fillColor=#FFFFFF;rounded=0;whiteSpace=wrap;html=1;fontSize=9;arrowWidth=1" value="&lt;p style=&quot;line-height: 100%;&quot;&gt;Reg&lt;/p&gt;" vertex="1">
                    <mxGeometry as="geometry" height="40.0" width="20.0" x="490.0" y="650.0"/>
                </mxCell>
                <mxCell id="5b2be25d-769c-44bd-a32f-43e27b52fb54" parent="770b73e2-aed6-4353-90c4-a2bc45edcdfa" style="fillColor=#FFFFFF;arrowSize=0.5;shape=singleArrow;rounded=0;whiteSpace=wrap;html=1;fontSize=9;arrowWidth=1" vertex="1">
                    <mxGeometry as="geometry" height="40.0" width="20.0" x="510.0" y="650.0"/>
                </mxCell>
                <mxCell id="acb8cc7d-44c7-4d3e-bf69-4b48604e857a" parent="770b73e2-aed6-4353-90c4-a2bc45edcdfa" style="rounded=0;whiteSpace=wrap;html=1;fillColor=#F58828;fontSize=9;fontColor=#000000;align=left;strokeColor=none" value="&lt;p style=&quot;line-height: 100%;&quot;&gt;&lt;br&gt;ChargedCountReg1&lt;br&gt;&lt;i&gt;Register&lt;/i&gt;&lt;/p&gt;" vertex="1">
                    <mxGeometry as="geometry" height="80.0" width="380.0" x="170.0" y="720.0"/>
                </mxCell>
                <mxCell id="19532d88-e0c3-49d2-b0d6-5c491ffd13bd" parent="770b73e2-aed6-4353-90c4-a2bc45edcdfa" style="rounded=0;whiteSpace=wrap;html=1;fillColor=#66B2FF;fontSize=9;fontColor=#000000;align=left;strokeColor=none" value="&lt;p style=&quot;line-height: 100%;&quot;&gt;Count&lt;br&gt;&lt;i&gt;Data&lt;/i&gt;&lt;/p&gt;" vertex="1">
                    <mxGeometry as="geometry" height="60.0" width="290.0" x="250.0" y="730.0"/>
                </mxCell>
                <mxCell id="cd2f929b-fa5d-4252-8e53-6e184cfd8553" parent="770b73e2-aed6-4353-90c4-a2bc45edcdfa" style="fillColor=#FFFFFF;arrowSize=0.05;shape=doubleArrow;rounded=0;whiteSpace=wrap;html=1;fontSize=9;arrowWidth=1" value="&lt;p style=&quot;line-height: 100%;&quot;&gt;&lt;/p&gt;" vertex="1">
                    <mxGeometry as="geometry" height="40.0" width="160.0" x="330.0" y="740.0"/>
                </mxCell>
                <mxCell id="60da21f6-56bb-4535-a1d7-fa3a4f4f1bc3" parent="770b73e2-aed6-4353-90c4-a2bc45edcdfa" style="fillColor=#FFFFFF;rounded=0;whiteSpace=wrap;html=1;fontSize=9;arrowWidth=1" value="&lt;p style=&quot;line-height: 100%;&quot;&gt;Reg&lt;/p&gt;" vertex="1">
                    <mxGeometry as="geometry" height="40.0" width="20.0" x="490.0" y="740.0"/>
                </mxCell>
                <mxCell id="264834f5-1ba3-4f32-891e-bd34b73964bf" parent="770b73e2-aed6-4353-90c4-a2bc45edcdfa" style="fillColor=#FFFFFF;arrowSize=0.5;shape=singleArrow;rounded=0;whiteSpace=wrap;html=1;fontSize=9;arrowWidth=1" vertex="1">
                    <mxGeometry as="geometry" height="40.0" width="20.0" x="510.0" y="740.0"/>
                </mxCell>
                <mxCell id="bd7390cb-38b8-45bc-b6e4-131bbffcf4c1" parent="770b73e2-aed6-4353-90c4-a2bc45edcdfa" style="fillColor=none;verticalAlign=middle;labelBorderColor=none;fontSize=20;align=center;fontStyle=1;strokeColor=none;fontColor=#F58828;rounded=0;whiteSpace=wrap;html=1" value="&lt;p style=&quot;line-height: 100%;&quot;&gt;HxS&lt;/p&gt;" vertex="1">
                    <mxGeometry as="geometry" height="30.0" width="50.0" x="10.0" y="790.0"/>
                </mxCell>
            </root>
        </mxGraphModel>
    </diagram>
    <diagram id="c4eadd9f-a607-4377-b237-2c121a92f4ce" name="Slice1">
        <mxGraphModel arrows="1" connect="1" fold="1" grid="1" gridSize="10" guides="1" math="0" page="1" pageScale="1" shadow="0" tooltips="1">
            <root>
                <mxCell id="0"/>
                <mxCell id="1" parent="0"/>
                <mxCell id="fb1a2643-5b3f-484c-8b8a-cd5f0db4de00" parent="0" value="Foreground"/>
                <mxCell id="5d020f78-494f-4614-8751-5e4f5505ca20" parent="fb1a2643-5b3f-484c-8b8a-cd5f0db4de00" style="shape=tape;size=0.011904761904761904;rounded=0;whiteSpace=wrap;html=1;fillColor=#253F8E;fontSize=9;fontColor=#FFFFFF;align=left;strokeColor=none" value="&lt;p style=&quot;line-height: 100%;&quot;&gt;...&lt;br&gt;Interrupt&lt;br&gt;GeneratorIfc&lt;br&gt;&lt;i&gt;Interface&lt;/i&gt;&lt;br&gt;...&lt;/p&gt;" vertex="1">
                    <mxGeometry as="geometry" height="840.0" width="560.0" x="10.0" y="10.0"/>
                </mxCell>
                <mxCell id="948c88e3-0030-4647-bf91-514809aa1828" parent="fb1a2643-5b3f-484c-8b8a-cd5f0db4de00" style="shape=tape;size=0.012195121951219513;rounded=0;whiteSpace=wrap;html=1;fillColor=#00CCCC;fontSize=9;fontColor=#000000;align=left;strokeColor=none" value="&lt;p style=&quot;line-height: 100%;&quot;&gt;...&lt;br&gt;Interrupt&lt;br&gt;GeneratorBlk&lt;br&gt;&lt;i&gt;Block&lt;/i&gt;&lt;br&gt;...&lt;/p&gt;" vertex="1">
                    <mxGeometry as="geometry" height="820.0" width="470.0" x="90.0" y="20.0"/>
                </mxCell>
                <mxCell id="4a55a35d-39b0-40fc-8bd5-3d4c4bf4b7b1" parent="fb1a2643-5b3f-484c-8b8a-cd5f0db4de00" style="rounded=0;whiteSpace=wrap;html=1;fillColor=#F58828;fontSize=9;fontColor=#000000;align=left;strokeColor=none" value="&lt;p style=&quot;line-height: 100%;&quot;&gt;&lt;br&gt;ChargedCountReg2&lt;br&gt;&lt;i&gt;Register&lt;/i&gt;&lt;/p&gt;" vertex="1">
                    <mxGeometry as="geometry" height="80.0" width="380.0" x="170.0" y="30.0"/>
                </mxCell>
                <mxCell id="51a9c2a8-6435-43f5-a8f7-f2e94f7b7f89" parent="fb1a2643-5b3f-484c-8b8a-cd5f0db4de00" style="rounded=0;whiteSpace=wrap;html=1;fillColor=#66B2FF;fontSize=9;fontColor=#000000;align=left;strokeColor=none" value="&lt;p style=&quot;line-height: 100%;&quot;&gt;Count&lt;br&gt;&lt;i&gt;Data&lt;/i&gt;&lt;/p&gt;" vertex="1">
                    <mxGeometry as="geometry" height="60.0" width="290.0" x="250.0" y="40.0"/>
                </mxCell>
                <mxCell id="cd7315fa-a2b0-4294-a906-eef5ef5d60e0" parent="fb1a2643-5b3f-484c-8b8a-cd5f0db4de00" style="fillColor=#FFFFFF;arrowSize=0.05;shape=doubleArrow;rounded=0;whiteSpace=wrap;html=1;fontSize=9;arrowWidth=1" value="&lt;p style=&quot;line-height: 100%;&quot;&gt;&lt;/p&gt;" vertex="1">
                    <mxGeometry as="geometry" height="40.0" width="160.0" x="330.0" y="50.0"/>
                </mxCell>
                <mxCell id="ba80041b-5cc4-47df-8345-4e6207c4b649" parent="fb1a2643-5b3f-484c-8b8a-cd5f0db4de00" style="fillColor=#FFFFFF;rounded=0;whiteSpace=wrap;html=1;fontSize=9;arrowWidth=1" value="&lt;p style=&quot;line-height: 100%;&quot;&gt;Reg&lt;/p&gt;" vertex="1">
                    <mxGeometry as="geometry" height="40.0" width="20.0" x="490.0" y="50.0"/>
                </mxCell>
                <mxCell id="89feb165-8bf1-4402-ba37-87130e586e47" parent="fb1a2643-5b3f-484c-8b8a-cd5f0db4de00" style="fillColor=#FFFFFF;arrowSize=0.5;shape=singleArrow;rounded=0;whiteSpace=wrap;html=1;fontSize=9;arrowWidth=1" vertex="1">
                    <mxGeometry as="geometry" height="40.0" width="20.0" x="510.0" y="50.0"/>
                </mxCell>
                <mxCell id="6d0f6c9e-1ffe-480b-aa9e-dd119728502a" parent="fb1a2643-5b3f-484c-8b8a-cd5f0db4de00" style="rounded=0;whiteSpace=wrap;html=1;fillColor=#F58828;fontSize=9;fontColor=#000000;align=left;strokeColor=none" value="&lt;p style=&quot;line-height: 100%;&quot;&gt;&lt;br&gt;ChargedCountReg3&lt;br&gt;&lt;i&gt;Register&lt;/i&gt;&lt;/p&gt;" vertex="1">
                    <mxGeometry as="geometry" height="80.0" width="380.0" x="170.0" y="120.0"/>
                </mxCell>
                <mxCell id="b171b0c5-bca1-43e7-ab3a-1aacf36e5950" parent="fb1a2643-5b3f-484c-8b8a-cd5f0db4de00" style="rounded=0;whiteSpace=wrap;html=1;fillColor=#66B2FF;fontSize=9;fontColor=#000000;align=left;strokeColor=none" value="&lt;p style=&quot;line-height: 100%;&quot;&gt;Count&lt;br&gt;&lt;i&gt;Data&lt;/i&gt;&lt;/p&gt;" vertex="1">
                    <mxGeometry as="geometry" height="60.0" width="290.0" x="250.0" y="130.0"/>
                </mxCell>
                <mxCell id="dc3b1ecd-0008-49bf-98f7-adb1ef86d17d" parent="fb1a2643-5b3f-484c-8b8a-cd5f0db4de00" style="fillColor=#FFFFFF;arrowSize=0.05;shape=doubleArrow;rounded=0;whiteSpace=wrap;html=1;fontSize=9;arrowWidth=1" value="&lt;p style=&quot;line-height: 100%;&quot;&gt;&lt;/p&gt;" vertex="1">
                    <mxGeometry as="geometry" height="40.0" width="160.0" x="330.0" y="140.0"/>
                </mxCell>
                <mxCell id="7cdb987d-d907-4b00-bcd0-c5c83c1b93d5" parent="fb1a2643-5b3f-484c-8b8a-cd5f0db4de00" style="fillColor=#FFFFFF;rounded=0;whiteSpace=wrap;html=1;fontSize=9;arrowWidth=1" value="&lt;p style=&quot;line-height: 100%;&quot;&gt;Reg&lt;/p&gt;" vertex="1">
                    <mxGeometry as="geometry" height="40.0" width="20.0" x="490.0" y="140.0"/>
                </mxCell>
                <mxCell id="d1cc40c3-fa55-4965-b16b-6036d35afcc1" parent="fb1a2643-5b3f-484c-8b8a-cd5f0db4de00" style="fillColor=#FFFFFF;arrowSize=0.5;shape=singleArrow;rounded=0;whiteSpace=wrap;html=1;fontSize=9;arrowWidth=1" vertex="1">
                    <mxGeometry as="geometry" height="40.0" width="20.0" x="510.0" y="140.0"/>
                </mxCell>
                <mxCell id="db648562-d851-4cb0-815e-f0534ac3a7f1" parent="fb1a2643-5b3f-484c-8b8a-cd5f0db4de00" style="rounded=0;whiteSpace=wrap;html=1;fillColor=#F58828;fontSize=9;fontColor=#000000;align=left;strokeColor=none" value="&lt;p style=&quot;line-height: 100%;&quot;&gt;&lt;br&gt;ActualCountReg0&lt;br&gt;&lt;i&gt;Register&lt;/i&gt;&lt;/p&gt;" vertex="1">
                    <mxGeometry as="geometry" height="80.0" width="380.0" x="170.0" y="210.0"/>
                </mxCell>
                <mxCell id="d4dba2ab-f72d-4139-b80c-71c559a40962" parent="fb1a2643-5b3f-484c-8b8a-cd5f0db4de00" style="rounded=0;whiteSpace=wrap;html=1;fillColor=#66B2FF;fontSize=9;fontColor=#000000;align=left;strokeColor=none" value="&lt;p style=&quot;line-height: 100%;&quot;&gt;Count&lt;br&gt;&lt;i&gt;Data&lt;/i&gt;&lt;/p&gt;" vertex="1">
                    <mxGeometry as="geometry" height="60.0" width="290.0" x="250.0" y="220.0"/>
                </mxCell>
                <mxCell id="58a81c61-bb43-44ed-b05a-d07ac9d3d7e7" parent="fb1a2643-5b3f-484c-8b8a-cd5f0db4de00" style="fillColor=#FFFFFF;arrowSize=0.05;shape=singleArrow;direction=west;rounded=0;whiteSpace=wrap;html=1;fontSize=9;arrowWidth=1" value="&lt;p style=&quot;line-height: 100%;&quot;&gt;&lt;/p&gt;" vertex="1">
                    <mxGeometry as="geometry" height="40.0" width="200.0" x="330.0" y="230.0"/>
                </mxCell>
                <mxCell id="cee6728a-1cda-4d0b-b0cf-79124c87437f" parent="fb1a2643-5b3f-484c-8b8a-cd5f0db4de00" style="rounded=0;whiteSpace=wrap;html=1;fillColor=#F58828;fontSize=9;fontColor=#000000;align=left;strokeColor=none" value="&lt;p style=&quot;line-height: 100%;&quot;&gt;&lt;br&gt;ActualCountReg1&lt;br&gt;&lt;i&gt;Register&lt;/i&gt;&lt;/p&gt;" vertex="1">
                    <mxGeometry as="geometry" height="80.0" width="380.0" x="170.0" y="300.0"/>
                </mxCell>
                <mxCell id="f1e7ef76-4713-4624-8eee-4779e8ffe271" parent="fb1a2643-5b3f-484c-8b8a-cd5f0db4de00" style="rounded=0;whiteSpace=wrap;html=1;fillColor=#66B2FF;fontSize=9;fontColor=#000000;align=left;strokeColor=none" value="&lt;p style=&quot;line-height: 100%;&quot;&gt;Count&lt;br&gt;&lt;i&gt;Data&lt;/i&gt;&lt;/p&gt;" vertex="1">
                    <mxGeometry as="geometry" height="60.0" width="290.0" x="250.0" y="310.0"/>
                </mxCell>
                <mxCell id="c2dffe9c-23b4-4981-83ef-2813dcc71202" parent="fb1a2643-5b3f-484c-8b8a-cd5f0db4de00" style="fillColor=#FFFFFF;arrowSize=0.05;shape=singleArrow;direction=west;rounded=0;whiteSpace=wrap;html=1;fontSize=9;arrowWidth=1" value="&lt;p style=&quot;line-height: 100%;&quot;&gt;&lt;/p&gt;" vertex="1">
                    <mxGeometry as="geometry" height="40.0" width="200.0" x="330.0" y="320.0"/>
                </mxCell>
                <mxCell id="c66a2f35-7e7d-4449-a561-fffa40104045" parent="fb1a2643-5b3f-484c-8b8a-cd5f0db4de00" style="rounded=0;whiteSpace=wrap;html=1;fillColor=#F58828;fontSize=9;fontColor=#000000;align=left;strokeColor=none" value="&lt;p style=&quot;line-height: 100%;&quot;&gt;&lt;br&gt;ActualCountReg2&lt;br&gt;&lt;i&gt;Register&lt;/i&gt;&lt;/p&gt;" vertex="1">
                    <mxGeometry as="geometry" height="80.0" width="380.0" x="170.0" y="390.0"/>
                </mxCell>
                <mxCell id="94e11a38-22b0-4d93-a803-be6e92c1f505" parent="fb1a2643-5b3f-484c-8b8a-cd5f0db4de00" style="rounded=0;whiteSpace=wrap;html=1;fillColor=#66B2FF;fontSize=9;fontColor=#000000;align=left;strokeColor=none" value="&lt;p style=&quot;line-height: 100%;&quot;&gt;Count&lt;br&gt;&lt;i&gt;Data&lt;/i&gt;&lt;/p&gt;" vertex="1">
                    <mxGeometry as="geometry" height="60.0" width="290.0" x="250.0" y="400.0"/>
                </mxCell>
                <mxCell id="b0669b1b-9767-41f6-9199-2240ee7a4bc3" parent="fb1a2643-5b3f-484c-8b8a-cd5f0db4de00" style="fillColor=#FFFFFF;arrowSize=0.05;shape=singleArrow;direction=west;rounded=0;whiteSpace=wrap;html=1;fontSize=9;arrowWidth=1" value="&lt;p style=&quot;line-height: 100%;&quot;&gt;&lt;/p&gt;" vertex="1">
                    <mxGeometry as="geometry" height="40.0" width="200.0" x="330.0" y="410.0"/>
                </mxCell>
                <mxCell id="97e8dc19-8240-4039-9ce9-06ef97b47f0c" parent="fb1a2643-5b3f-484c-8b8a-cd5f0db4de00" style="rounded=0;whiteSpace=wrap;html=1;fillColor=#F58828;fontSize=9;fontColor=#000000;align=left;strokeColor=none" value="&lt;p style=&quot;line-height: 100%;&quot;&gt;&lt;br&gt;ActualCountReg3&lt;br&gt;&lt;i&gt;Register&lt;/i&gt;&lt;/p&gt;" vertex="1">
                    <mxGeometry as="geometry" height="80.0" width="380.0" x="170.0" y="480.0"/>
                </mxCell>
                <mxCell id="b4adaf27-22a0-42b4-8931-3ff1cdfc3efe" parent="fb1a2643-5b3f-484c-8b8a-cd5f0db4de00" style="rounded=0;whiteSpace=wrap;html=1;fillColor=#66B2FF;fontSize=9;fontColor=#000000;align=left;strokeColor=none" value="&lt;p style=&quot;line-height: 100%;&quot;&gt;Count&lt;br&gt;&lt;i&gt;Data&lt;/i&gt;&lt;/p&gt;" vertex="1">
                    <mxGeometry as="geometry" height="60.0" width="290.0" x="250.0" y="490.0"/>
                </mxCell>
                <mxCell id="5f9c735c-cf33-4ebc-88c7-2992a88f021f" parent="fb1a2643-5b3f-484c-8b8a-cd5f0db4de00" style="fillColor=#FFFFFF;arrowSize=0.05;shape=singleArrow;direction=west;rounded=0;whiteSpace=wrap;html=1;fontSize=9;arrowWidth=1" value="&lt;p style=&quot;line-height: 100%;&quot;&gt;&lt;/p&gt;" vertex="1">
                    <mxGeometry as="geometry" height="40.0" width="200.0" x="330.0" y="500.0"/>
                </mxCell>
                <mxCell id="8ff6b9d4-4057-4443-92ea-f9b1fc7d3194" parent="fb1a2643-5b3f-484c-8b8a-cd5f0db4de00" style="rounded=0;whiteSpace=wrap;html=1;fillColor=#F58828;fontSize=9;fontColor=#000000;align=left;strokeColor=none" value="&lt;p style=&quot;line-height: 100%;&quot;&gt;&lt;br&gt;FailureCountReg0&lt;br&gt;&lt;i&gt;Register&lt;/i&gt;&lt;/p&gt;" vertex="1">
                    <mxGeometry as="geometry" height="80.0" width="380.0" x="170.0" y="570.0"/>
                </mxCell>
                <mxCell id="413926a4-a975-436c-ba86-c6c68ef61c0e" parent="fb1a2643-5b3f-484c-8b8a-cd5f0db4de00" style="rounded=0;whiteSpace=wrap;html=1;fillColor=#66B2FF;fontSize=9;fontColor=#000000;align=left;strokeColor=none" value="&lt;p style=&quot;line-height: 100%;&quot;&gt;Count&lt;br&gt;&lt;i&gt;Data&lt;/i&gt;&lt;/p&gt;" vertex="1">
                    <mxGeometry as="geometry" height="60.0" width="290.0" x="250.0" y="580.0"/>
                </mxCell>
                <mxCell id="5bad2afe-fb7f-41d5-a336-06841bc40b74" parent="fb1a2643-5b3f-484c-8b8a-cd5f0db4de00" style="fillColor=#FFFFFF;arrowSize=0.05;shape=singleArrow;direction=west;rounded=0;whiteSpace=wrap;html=1;fontSize=9;arrowWidth=1" value="&lt;p style=&quot;line-height: 100%;&quot;&gt;&lt;/p&gt;" vertex="1">
                    <mxGeometry as="geometry" height="40.0" width="200.0" x="330.0" y="590.0"/>
                </mxCell>
                <mxCell id="cfd4ae6b-6e71-4bff-a5c1-6ad76b18fbc0" parent="fb1a2643-5b3f-484c-8b8a-cd5f0db4de00" style="rounded=0;whiteSpace=wrap;html=1;fillColor=#F58828;fontSize=9;fontColor=#000000;align=left;strokeColor=none" value="&lt;p style=&quot;line-height: 100%;&quot;&gt;&lt;br&gt;FailureCountReg1&lt;br&gt;&lt;i&gt;Register&lt;/i&gt;&lt;/p&gt;" vertex="1">
                    <mxGeometry as="geometry" height="80.0" width="380.0" x="170.0" y="660.0"/>
                </mxCell>
                <mxCell id="cc2e8599-1da2-407b-893d-8d9951917ffa" parent="fb1a2643-5b3f-484c-8b8a-cd5f0db4de00" style="rounded=0;whiteSpace=wrap;html=1;fillColor=#66B2FF;fontSize=9;fontColor=#000000;align=left;strokeColor=none" value="&lt;p style=&quot;line-height: 100%;&quot;&gt;Count&lt;br&gt;&lt;i&gt;Data&lt;/i&gt;&lt;/p&gt;" vertex="1">
                    <mxGeometry as="geometry" height="60.0" width="290.0" x="250.0" y="670.0"/>
                </mxCell>
                <mxCell id="1fe4f0ee-146e-415d-989c-2a33d78529a5" parent="fb1a2643-5b3f-484c-8b8a-cd5f0db4de00" style="fillColor=#FFFFFF;arrowSize=0.05;shape=singleArrow;direction=west;rounded=0;whiteSpace=wrap;html=1;fontSize=9;arrowWidth=1" value="&lt;p style=&quot;line-height: 100%;&quot;&gt;&lt;/p&gt;" vertex="1">
                    <mxGeometry as="geometry" height="40.0" width="200.0" x="330.0" y="680.0"/>
                </mxCell>
                <mxCell id="2ffb2709-c72a-4f1f-9002-a5a9b1c92958" parent="fb1a2643-5b3f-484c-8b8a-cd5f0db4de00" style="rounded=0;whiteSpace=wrap;html=1;fillColor=#F58828;fontSize=9;fontColor=#000000;align=left;strokeColor=none" value="&lt;p style=&quot;line-height: 100%;&quot;&gt;&lt;br&gt;FailureCountReg2&lt;br&gt;&lt;i&gt;Register&lt;/i&gt;&lt;/p&gt;" vertex="1">
                    <mxGeometry as="geometry" height="80.0" width="380.0" x="170.0" y="750.0"/>
                </mxCell>
                <mxCell id="dc6537de-c404-4b1a-b418-f2d7963b3643" parent="fb1a2643-5b3f-484c-8b8a-cd5f0db4de00" style="rounded=0;whiteSpace=wrap;html=1;fillColor=#66B2FF;fontSize=9;fontColor=#000000;align=left;strokeColor=none" value="&lt;p style=&quot;line-height: 100%;&quot;&gt;Count&lt;br&gt;&lt;i&gt;Data&lt;/i&gt;&lt;/p&gt;" vertex="1">
                    <mxGeometry as="geometry" height="60.0" width="290.0" x="250.0" y="760.0"/>
                </mxCell>
                <mxCell id="4c8f3832-4e9b-4197-986b-7b14ef2c4a22" parent="fb1a2643-5b3f-484c-8b8a-cd5f0db4de00" style="fillColor=#FFFFFF;arrowSize=0.05;shape=singleArrow;direction=west;rounded=0;whiteSpace=wrap;html=1;fontSize=9;arrowWidth=1" value="&lt;p style=&quot;line-height: 100%;&quot;&gt;&lt;/p&gt;" vertex="1">
                    <mxGeometry as="geometry" height="40.0" width="200.0" x="330.0" y="770.0"/>
                </mxCell>
                <mxCell id="bdf736a5-cd75-4e72-ad7a-6c79b094ecdf" parent="fb1a2643-5b3f-484c-8b8a-cd5f0db4de00" style="fillColor=none;verticalAlign=middle;labelBorderColor=none;fontSize=20;align=center;fontStyle=1;strokeColor=none;fontColor=#F58828;rounded=0;whiteSpace=wrap;html=1" value="&lt;p style=&quot;line-height: 100%;&quot;&gt;HxS&lt;/p&gt;" vertex="1">
                    <mxGeometry as="geometry" height="30.0" width="50.0" x="10.0" y="820.0"/>
                </mxCell>
            </root>
        </mxGraphModel>
    </diagram>
    <diagram id="df35487e-6fb4-4058-adea-fc102077ec59" name="Slice2">
        <mxGraphModel arrows="1" connect="1" fold="1" grid="1" gridSize="10" guides="1" math="0" page="1" pageScale="1" shadow="0" tooltips="1">
            <root>
                <mxCell id="0"/>
                <mxCell id="1" parent="0"/>
                <mxCell id="39176528-94aa-42c4-802f-be51ac23d94b" parent="0" value="Foreground"/>
                <mxCell id="74023dd5-2ef5-4514-b071-99033ed4457c" parent="39176528-94aa-42c4-802f-be51ac23d94b" style="shape=tape;size=0.011494252873563218;rounded=0;whiteSpace=wrap;html=1;fillColor=#253F8E;fontSize=9;fontColor=#FFFFFF;align=left;strokeColor=none" value="&lt;p style=&quot;line-height: 100%;&quot;&gt;...&lt;br&gt;Interrupt&lt;br&gt;GeneratorIfc&lt;br&gt;&lt;i&gt;Interface&lt;/i&gt;&lt;br&gt;...&lt;/p&gt;" vertex="1">
                    <mxGeometry as="geometry" height="870.0" width="560.0" x="10.0" y="10.0"/>
                </mxCell>
                <mxCell id="a2eb8d82-4a72-4d84-9071-99dc161eedf3" parent="39176528-94aa-42c4-802f-be51ac23d94b" style="shape=tape;size=0.011764705882352941;rounded=0;whiteSpace=wrap;html=1;fillColor=#00CCCC;fontSize=9;fontColor=#000000;align=left;strokeColor=none" value="&lt;p style=&quot;line-height: 100%;&quot;&gt;...&lt;br&gt;Interrupt&lt;br&gt;GeneratorBlk&lt;br&gt;&lt;i&gt;Block&lt;/i&gt;&lt;br&gt;...&lt;/p&gt;" vertex="1">
                    <mxGeometry as="geometry" height="850.0" width="470.0" x="90.0" y="20.0"/>
                </mxCell>
                <mxCell id="acfc59da-5e28-4944-b18f-e11510db4281" parent="39176528-94aa-42c4-802f-be51ac23d94b" style="rounded=0;whiteSpace=wrap;html=1;fillColor=#F58828;fontSize=9;fontColor=#000000;align=left;strokeColor=none" value="&lt;p style=&quot;line-height: 100%;&quot;&gt;&lt;br&gt;FailureCountReg3&lt;br&gt;&lt;i&gt;Register&lt;/i&gt;&lt;/p&gt;" vertex="1">
                    <mxGeometry as="geometry" height="80.0" width="380.0" x="170.0" y="30.0"/>
                </mxCell>
                <mxCell id="26f34389-2c24-4dbe-88b2-b8b3c88622b3" parent="39176528-94aa-42c4-802f-be51ac23d94b" style="rounded=0;whiteSpace=wrap;html=1;fillColor=#66B2FF;fontSize=9;fontColor=#000000;align=left;strokeColor=none" value="&lt;p style=&quot;line-height: 100%;&quot;&gt;Count&lt;br&gt;&lt;i&gt;Data&lt;/i&gt;&lt;/p&gt;" vertex="1">
                    <mxGeometry as="geometry" height="60.0" width="290.0" x="250.0" y="40.0"/>
                </mxCell>
                <mxCell id="a47c6f5c-7869-4aa4-a3ac-43f4b8838603" parent="39176528-94aa-42c4-802f-be51ac23d94b" style="fillColor=#FFFFFF;arrowSize=0.05;shape=singleArrow;direction=west;rounded=0;whiteSpace=wrap;html=1;fontSize=9;arrowWidth=1" value="&lt;p style=&quot;line-height: 100%;&quot;&gt;&lt;/p&gt;" vertex="1">
                    <mxGeometry as="geometry" height="40.0" width="200.0" x="330.0" y="50.0"/>
                </mxCell>
                <mxCell id="51731f12-d071-4072-aa34-8bace9e583e8" parent="39176528-94aa-42c4-802f-be51ac23d94b" style="rounded=0;whiteSpace=wrap;html=1;fillColor=#F58828;fontSize=9;fontColor=#000000;align=left;strokeColor=none" value="&lt;p style=&quot;line-height: 100%;&quot;&gt;IntervalReg0&lt;br&gt;&lt;i&gt;Register&lt;/i&gt;&lt;/p&gt;" vertex="1">
                    <mxGeometry as="geometry" height="80.0" width="380.0" x="170.0" y="120.0"/>
                </mxCell>
                <mxCell id="fb320703-b996-4c3f-816a-637b0fdb7104" parent="39176528-94aa-42c4-802f-be51ac23d94b" style="rounded=0;whiteSpace=wrap;html=1;fillColor=#66B2FF;fontSize=9;fontColor=#000000;align=left;strokeColor=none" value="&lt;p style=&quot;line-height: 100%;&quot;&gt;Interval&lt;br&gt;&lt;i&gt;Data&lt;/i&gt;&lt;/p&gt;" vertex="1">
                    <mxGeometry as="geometry" height="60.0" width="290.0" x="250.0" y="130.0"/>
                </mxCell>
                <mxCell id="90378a9c-7fab-4830-9211-90e9a876d8ad" parent="39176528-94aa-42c4-802f-be51ac23d94b" style="fillColor=#FFFFFF;arrowSize=0.05;shape=doubleArrow;rounded=0;whiteSpace=wrap;html=1;fontSize=9;arrowWidth=1" value="&lt;p style=&quot;line-height: 100%;&quot;&gt;&lt;/p&gt;" vertex="1">
                    <mxGeometry as="geometry" height="40.0" width="160.0" x="330.0" y="140.0"/>
                </mxCell>
                <mxCell id="52ec3506-e1d1-4262-8b12-60c6cecfba3b" parent="39176528-94aa-42c4-802f-be51ac23d94b" style="fillColor=#FFFFFF;rounded=0;whiteSpace=wrap;html=1;fontSize=9;arrowWidth=1" value="&lt;p style=&quot;line-height: 100%;&quot;&gt;Reg&lt;/p&gt;" vertex="1">
                    <mxGeometry as="geometry" height="40.0" width="20.0" x="490.0" y="140.0"/>
                </mxCell>
                <mxCell id="be4e0293-f5d3-406a-b689-49689a24028c" parent="39176528-94aa-42c4-802f-be51ac23d94b" style="fillColor=#FFFFFF;arrowSize=0.5;shape=singleArrow;rounded=0;whiteSpace=wrap;html=1;fontSize=9;arrowWidth=1" vertex="1">
                    <mxGeometry as="geometry" height="40.0" width="20.0" x="510.0" y="140.0"/>
                </mxCell>
                <mxCell id="570873fd-a3a6-4753-92e3-c3e3b42ba714" parent="39176528-94aa-42c4-802f-be51ac23d94b" style="rounded=0;whiteSpace=wrap;html=1;fillColor=#F58828;fontSize=9;fontColor=#000000;align=left;strokeColor=none" value="&lt;p style=&quot;line-height: 100%;&quot;&gt;IntervalReg1&lt;br&gt;&lt;i&gt;Register&lt;/i&gt;&lt;/p&gt;" vertex="1">
                    <mxGeometry as="geometry" height="80.0" width="380.0" x="170.0" y="210.0"/>
                </mxCell>
                <mxCell id="3ef304fc-91f9-4ef0-8675-dffd242be397" parent="39176528-94aa-42c4-802f-be51ac23d94b" style="rounded=0;whiteSpace=wrap;html=1;fillColor=#66B2FF;fontSize=9;fontColor=#000000;align=left;strokeColor=none" value="&lt;p style=&quot;line-height: 100%;&quot;&gt;Interval&lt;br&gt;&lt;i&gt;Data&lt;/i&gt;&lt;/p&gt;" vertex="1">
                    <mxGeometry as="geometry" height="60.0" width="290.0" x="250.0" y="220.0"/>
                </mxCell>
                <mxCell id="b9afc9cb-5080-4240-b7e7-d38d79f34ba3" parent="39176528-94aa-42c4-802f-be51ac23d94b" style="fillColor=#FFFFFF;arrowSize=0.05;shape=doubleArrow;rounded=0;whiteSpace=wrap;html=1;fontSize=9;arrowWidth=1" value="&lt;p style=&quot;line-height: 100%;&quot;&gt;&lt;/p&gt;" vertex="1">
                    <mxGeometry as="geometry" height="40.0" width="160.0" x="330.0" y="230.0"/>
                </mxCell>
                <mxCell id="af5147b6-f570-477f-8317-67376e53927b" parent="39176528-94aa-42c4-802f-be51ac23d94b" style="fillColor=#FFFFFF;rounded=0;whiteSpace=wrap;html=1;fontSize=9;arrowWidth=1" value="&lt;p style=&quot;line-height: 100%;&quot;&gt;Reg&lt;/p&gt;" vertex="1">
                    <mxGeometry as="geometry" height="40.0" width="20.0" x="490.0" y="230.0"/>
                </mxCell>
                <mxCell id="8c4d2eeb-6971-4545-ae98-4a249960d77a" parent="39176528-94aa-42c4-802f-be51ac23d94b" style="fillColor=#FFFFFF;arrowSize=0.5;shape=singleArrow;rounded=0;whiteSpace=wrap;html=1;fontSize=9;arrowWidth=1" vertex="1">
                    <mxGeometry as="geometry" height="40.0" width="20.0" x="510.0" y="230.0"/>
                </mxCell>
                <mxCell id="4773e05c-08de-4261-aef7-055b054b4960" parent="39176528-94aa-42c4-802f-be51ac23d94b" style="rounded=0;whiteSpace=wrap;html=1;fillColor=#F58828;fontSize=9;fontColor=#000000;align=left;strokeColor=none" value="&lt;p style=&quot;line-height: 100%;&quot;&gt;IntervalReg2&lt;br&gt;&lt;i&gt;Register&lt;/i&gt;&lt;/p&gt;" vertex="1">
                    <mxGeometry as="geometry" height="80.0" width="380.0" x="170.0" y="300.0"/>
                </mxCell>
                <mxCell id="f6f73002-a3e4-4016-8e62-0c5f262fb660" parent="39176528-94aa-42c4-802f-be51ac23d94b" style="rounded=0;whiteSpace=wrap;html=1;fillColor=#66B2FF;fontSize=9;fontColor=#000000;align=left;strokeColor=none" value="&lt;p style=&quot;line-height: 100%;&quot;&gt;Interval&lt;br&gt;&lt;i&gt;Data&lt;/i&gt;&lt;/p&gt;" vertex="1">
                    <mxGeometry as="geometry" height="60.0" width="290.0" x="250.0" y="310.0"/>
                </mxCell>
                <mxCell id="50533b78-2169-46b9-8f80-5dd87cc129fa" parent="39176528-94aa-42c4-802f-be51ac23d94b" style="fillColor=#FFFFFF;arrowSize=0.05;shape=doubleArrow;rounded=0;whiteSpace=wrap;html=1;fontSize=9;arrowWidth=1" value="&lt;p style=&quot;line-height: 100%;&quot;&gt;&lt;/p&gt;" vertex="1">
                    <mxGeometry as="geometry" height="40.0" width="160.0" x="330.0" y="320.0"/>
                </mxCell>
                <mxCell id="71d3501f-dc80-401d-8f4a-c007847fc413" parent="39176528-94aa-42c4-802f-be51ac23d94b" style="fillColor=#FFFFFF;rounded=0;whiteSpace=wrap;html=1;fontSize=9;arrowWidth=1" value="&lt;p style=&quot;line-height: 100%;&quot;&gt;Reg&lt;/p&gt;" vertex="1">
                    <mxGeometry as="geometry" height="40.0" width="20.0" x="490.0" y="320.0"/>
                </mxCell>
                <mxCell id="d54e59d0-0e80-4d84-888b-500fb57da08c" parent="39176528-94aa-42c4-802f-be51ac23d94b" style="fillColor=#FFFFFF;arrowSize=0.5;shape=singleArrow;rounded=0;whiteSpace=wrap;html=1;fontSize=9;arrowWidth=1" vertex="1">
                    <mxGeometry as="geometry" height="40.0" width="20.0" x="510.0" y="320.0"/>
                </mxCell>
                <mxCell id="58de8881-160f-4fe5-a85d-16cad53c6055" parent="39176528-94aa-42c4-802f-be51ac23d94b" style="rounded=0;whiteSpace=wrap;html=1;fillColor=#F58828;fontSize=9;fontColor=#000000;align=left;strokeColor=none" value="&lt;p style=&quot;line-height: 100%;&quot;&gt;IntervalReg3&lt;br&gt;&lt;i&gt;Register&lt;/i&gt;&lt;/p&gt;" vertex="1">
                    <mxGeometry as="geometry" height="80.0" width="380.0" x="170.0" y="390.0"/>
                </mxCell>
                <mxCell id="782d579a-3e96-4203-9a13-73f6df10ca76" parent="39176528-94aa-42c4-802f-be51ac23d94b" style="rounded=0;whiteSpace=wrap;html=1;fillColor=#66B2FF;fontSize=9;fontColor=#000000;align=left;strokeColor=none" value="&lt;p style=&quot;line-height: 100%;&quot;&gt;Interval&lt;br&gt;&lt;i&gt;Data&lt;/i&gt;&lt;/p&gt;" vertex="1">
                    <mxGeometry as="geometry" height="60.0" width="290.0" x="250.0" y="400.0"/>
                </mxCell>
                <mxCell id="0c39aa45-0a8c-416e-ab24-30b561a7acc5" parent="39176528-94aa-42c4-802f-be51ac23d94b" style="fillColor=#FFFFFF;arrowSize=0.05;shape=doubleArrow;rounded=0;whiteSpace=wrap;html=1;fontSize=9;arrowWidth=1" value="&lt;p style=&quot;line-height: 100%;&quot;&gt;&lt;/p&gt;" vertex="1">
                    <mxGeometry as="geometry" height="40.0" width="160.0" x="330.0" y="410.0"/>
                </mxCell>
                <mxCell id="993bc60b-47c2-410f-9a47-c3e42409d7e3" parent="39176528-94aa-42c4-802f-be51ac23d94b" style="fillColor=#FFFFFF;rounded=0;whiteSpace=wrap;html=1;fontSize=9;arrowWidth=1" value="&lt;p style=&quot;line-height: 100%;&quot;&gt;Reg&lt;/p&gt;" vertex="1">
                    <mxGeometry as="geometry" height="40.0" width="20.0" x="490.0" y="410.0"/>
                </mxCell>
                <mxCell id="2b5d8cfa-ae99-4905-99aa-3eba35af1b4e" parent="39176528-94aa-42c4-802f-be51ac23d94b" style="fillColor=#FFFFFF;arrowSize=0.5;shape=singleArrow;rounded=0;whiteSpace=wrap;html=1;fontSize=9;arrowWidth=1" vertex="1">
                    <mxGeometry as="geometry" height="40.0" width="20.0" x="510.0" y="410.0"/>
                </mxCell>
                <mxCell id="c878dff4-937a-4f8d-9a08-159bb2bf4730" parent="39176528-94aa-42c4-802f-be51ac23d94b" style="rounded=0;whiteSpace=wrap;html=1;fillColor=#F58828;fontSize=9;fontColor=#000000;align=left;strokeColor=none" value="&lt;p style=&quot;line-height: 100%;&quot;&gt;ReferenceCount&lt;br&gt;Reg0&lt;br&gt;&lt;i&gt;Register&lt;/i&gt;&lt;/p&gt;" vertex="1">
                    <mxGeometry as="geometry" height="120.0" width="380.0" x="170.0" y="480.0"/>
                </mxCell>
                <mxCell id="b2db93d1-d0d9-42ea-9cd1-44ed82a668ec" parent="39176528-94aa-42c4-802f-be51ac23d94b" style="rounded=0;whiteSpace=wrap;html=1;fillColor=#66B2FF;fontSize=9;fontColor=#000000;align=left;strokeColor=none" value="&lt;p style=&quot;line-height: 100%;&quot;&gt;Count&lt;br&gt;&lt;i&gt;Data&lt;/i&gt;&lt;/p&gt;" vertex="1">
                    <mxGeometry as="geometry" height="60.0" width="290.0" x="250.0" y="490.0"/>
                </mxCell>
                <mxCell id="322cc97a-7000-4dd1-926d-0434969d1bd9" parent="39176528-94aa-42c4-802f-be51ac23d94b" style="fillColor=#FFFFFF;arrowSize=0.05;shape=doubleArrow;rounded=0;whiteSpace=wrap;html=1;fontSize=9;arrowWidth=1" value="&lt;p style=&quot;line-height: 100%;&quot;&gt;&lt;/p&gt;" vertex="1">
                    <mxGeometry as="geometry" height="40.0" width="160.0" x="330.0" y="500.0"/>
                </mxCell>
                <mxCell id="16ba9ede-a3dc-4eb6-bbfd-ac941de85b26" parent="39176528-94aa-42c4-802f-be51ac23d94b" style="fillColor=#FFFFFF;rounded=0;whiteSpace=wrap;html=1;fontSize=9;arrowWidth=1" value="&lt;p style=&quot;line-height: 100%;&quot;&gt;Reg&lt;/p&gt;" vertex="1">
                    <mxGeometry as="geometry" height="40.0" width="20.0" x="490.0" y="500.0"/>
                </mxCell>
                <mxCell id="30facd01-7050-4b49-8828-4ace1dc60874" parent="39176528-94aa-42c4-802f-be51ac23d94b" style="fillColor=#FFFFFF;arrowSize=0.5;shape=singleArrow;rounded=0;whiteSpace=wrap;html=1;fontSize=9;arrowWidth=1" vertex="1">
                    <mxGeometry as="geometry" height="40.0" width="20.0" x="510.0" y="500.0"/>
                </mxCell>
                <mxCell id="cf09f8a6-b670-4338-b25c-e9c6ed24466d" parent="39176528-94aa-42c4-802f-be51ac23d94b" style="fillColor=#CCCCCC;arrowSize=0.05;shape=singleArrow;rounded=0;whiteSpace=wrap;html=1;fontSize=9;arrowWidth=1" value="&lt;p style=&quot;line-height: 100%;&quot;&gt;WReg&lt;br&gt;&lt;i&gt;Pulse&lt;/i&gt;&lt;/p&gt;" vertex="1">
                    <mxGeometry as="geometry" height="30.0" width="200.0" x="330.0" y="560.0"/>
                </mxCell>
                <mxCell id="a196bf8a-fd02-4ca0-9a1c-995f4810ee68" parent="39176528-94aa-42c4-802f-be51ac23d94b" style="rounded=0;whiteSpace=wrap;html=1;fillColor=#F58828;fontSize=9;fontColor=#000000;align=left;strokeColor=none" value="&lt;p style=&quot;line-height: 100%;&quot;&gt;ReferenceCount&lt;br&gt;Reg1&lt;br&gt;&lt;i&gt;Register&lt;/i&gt;&lt;/p&gt;" vertex="1">
                    <mxGeometry as="geometry" height="120.0" width="380.0" x="170.0" y="610.0"/>
                </mxCell>
                <mxCell id="49d1f147-5027-4fa2-8e7d-fa5b38c61dd4" parent="39176528-94aa-42c4-802f-be51ac23d94b" style="rounded=0;whiteSpace=wrap;html=1;fillColor=#66B2FF;fontSize=9;fontColor=#000000;align=left;strokeColor=none" value="&lt;p style=&quot;line-height: 100%;&quot;&gt;Count&lt;br&gt;&lt;i&gt;Data&lt;/i&gt;&lt;/p&gt;" vertex="1">
                    <mxGeometry as="geometry" height="60.0" width="290.0" x="250.0" y="620.0"/>
                </mxCell>
                <mxCell id="c3050a8b-7812-4094-8815-cc8f094b2eb4" parent="39176528-94aa-42c4-802f-be51ac23d94b" style="fillColor=#FFFFFF;arrowSize=0.05;shape=doubleArrow;rounded=0;whiteSpace=wrap;html=1;fontSize=9;arrowWidth=1" value="&lt;p style=&quot;line-height: 100%;&quot;&gt;&lt;/p&gt;" vertex="1">
                    <mxGeometry as="geometry" height="40.0" width="160.0" x="330.0" y="630.0"/>
                </mxCell>
                <mxCell id="c975aa74-eeca-4358-a42e-1736fc5c2c61" parent="39176528-94aa-42c4-802f-be51ac23d94b" style="fillColor=#FFFFFF;rounded=0;whiteSpace=wrap;html=1;fontSize=9;arrowWidth=1" value="&lt;p style=&quot;line-height: 100%;&quot;&gt;Reg&lt;/p&gt;" vertex="1">
                    <mxGeometry as="geometry" height="40.0" width="20.0" x="490.0" y="630.0"/>
                </mxCell>
                <mxCell id="f36f9a9e-559c-4ee7-8d64-cb8db12e17b6" parent="39176528-94aa-42c4-802f-be51ac23d94b" style="fillColor=#FFFFFF;arrowSize=0.5;shape=singleArrow;rounded=0;whiteSpace=wrap;html=1;fontSize=9;arrowWidth=1" vertex="1">
                    <mxGeometry as="geometry" height="40.0" width="20.0" x="510.0" y="630.0"/>
                </mxCell>
                <mxCell id="d7647fa4-98e3-4547-a090-57b892961d6f" parent="39176528-94aa-42c4-802f-be51ac23d94b" style="fillColor=#CCCCCC;arrowSize=0.05;shape=singleArrow;rounded=0;whiteSpace=wrap;html=1;fontSize=9;arrowWidth=1" value="&lt;p style=&quot;line-height: 100%;&quot;&gt;WReg&lt;br&gt;&lt;i&gt;Pulse&lt;/i&gt;&lt;/p&gt;" vertex="1">
                    <mxGeometry as="geometry" height="30.0" width="200.0" x="330.0" y="690.0"/>
                </mxCell>
                <mxCell id="6a29afd3-2fb8-44db-ac91-ce0c13714144" parent="39176528-94aa-42c4-802f-be51ac23d94b" style="rounded=0;whiteSpace=wrap;html=1;fillColor=#F58828;fontSize=9;fontColor=#000000;align=left;strokeColor=none" value="&lt;p style=&quot;line-height: 100%;&quot;&gt;ReferenceCount&lt;br&gt;Reg2&lt;br&gt;&lt;i&gt;Register&lt;/i&gt;&lt;/p&gt;" vertex="1">
                    <mxGeometry as="geometry" height="120.0" width="380.0" x="170.0" y="740.0"/>
                </mxCell>
                <mxCell id="d3fd9cd5-5386-4008-bf8d-2349477532c6" parent="39176528-94aa-42c4-802f-be51ac23d94b" style="rounded=0;whiteSpace=wrap;html=1;fillColor=#66B2FF;fontSize=9;fontColor=#000000;align=left;strokeColor=none" value="&lt;p style=&quot;line-height: 100%;&quot;&gt;Count&lt;br&gt;&lt;i&gt;Data&lt;/i&gt;&lt;/p&gt;" vertex="1">
                    <mxGeometry as="geometry" height="60.0" width="290.0" x="250.0" y="750.0"/>
                </mxCell>
                <mxCell id="11d72d16-2622-49d2-9044-8027869c1a71" parent="39176528-94aa-42c4-802f-be51ac23d94b" style="fillColor=#FFFFFF;arrowSize=0.05;shape=doubleArrow;rounded=0;whiteSpace=wrap;html=1;fontSize=9;arrowWidth=1" value="&lt;p style=&quot;line-height: 100%;&quot;&gt;&lt;/p&gt;" vertex="1">
                    <mxGeometry as="geometry" height="40.0" width="160.0" x="330.0" y="760.0"/>
                </mxCell>
                <mxCell id="b47431a2-63c8-4184-a63c-cfa7f95491c7" parent="39176528-94aa-42c4-802f-be51ac23d94b" style="fillColor=#FFFFFF;rounded=0;whiteSpace=wrap;html=1;fontSize=9;arrowWidth=1" value="&lt;p style=&quot;line-height: 100%;&quot;&gt;Reg&lt;/p&gt;" vertex="1">
                    <mxGeometry as="geometry" height="40.0" width="20.0" x="490.0" y="760.0"/>
                </mxCell>
                <mxCell id="2d6abb69-7711-4148-a165-b5440c1bb0c6" parent="39176528-94aa-42c4-802f-be51ac23d94b" style="fillColor=#FFFFFF;arrowSize=0.5;shape=singleArrow;rounded=0;whiteSpace=wrap;html=1;fontSize=9;arrowWidth=1" vertex="1">
                    <mxGeometry as="geometry" height="40.0" width="20.0" x="510.0" y="760.0"/>
                </mxCell>
                <mxCell id="0eb58ba3-f27c-4bef-8c7e-919ca9d0fd54" parent="39176528-94aa-42c4-802f-be51ac23d94b" style="fillColor=#CCCCCC;arrowSize=0.05;shape=singleArrow;rounded=0;whiteSpace=wrap;html=1;fontSize=9;arrowWidth=1" value="&lt;p style=&quot;line-height: 100%;&quot;&gt;WReg&lt;br&gt;&lt;i&gt;Pulse&lt;/i&gt;&lt;/p&gt;" vertex="1">
                    <mxGeometry as="geometry" height="30.0" width="200.0" x="330.0" y="820.0"/>
                </mxCell>
                <mxCell id="5a421f84-b5a9-4c34-87a7-53c75b29bc63" parent="39176528-94aa-42c4-802f-be51ac23d94b" style="fillColor=none;verticalAlign=middle;labelBorderColor=none;fontSize=20;align=center;fontStyle=1;strokeColor=none;fontColor=#F58828;rounded=0;whiteSpace=wrap;html=1" value="&lt;p style=&quot;line-height: 100%;&quot;&gt;HxS&lt;/p&gt;" vertex="1">
                    <mxGeometry as="geometry" height="30.0" width="50.0" x="10.0" y="850.0"/>
                </mxCell>
            </root>
        </mxGraphModel>
    </diagram>
    <diagram id="b1423d1c-8f21-46e0-a171-639aaaa93d18" name="Slice3">
        <mxGraphModel arrows="1" connect="1" fold="1" grid="1" gridSize="10" guides="1" math="0" page="1" pageScale="1" shadow="0" tooltips="1">
            <root>
                <mxCell id="0"/>
                <mxCell id="1" parent="0"/>
                <mxCell id="7e2e9734-08f7-493d-8fe8-221e95fd2298" parent="0" value="Foreground"/>
                <mxCell id="2566861b-f3c0-462d-a2dc-a535ebb0c5bc" parent="7e2e9734-08f7-493d-8fe8-221e95fd2298" style="shape=document;size=0.0625;flipV=1;flipH=1;rounded=0;whiteSpace=wrap;html=1;fillColor=#253F8E;fontSize=9;fontColor=#FFFFFF;align=left;strokeColor=none" value="&lt;p style=&quot;line-height: 100%;&quot;&gt;...&lt;br&gt;Interrupt&lt;br&gt;GeneratorIfc&lt;br&gt;&lt;i&gt;Interface&lt;/i&gt;&lt;/p&gt;" vertex="1">
                    <mxGeometry as="geometry" height="160.0" width="560.0" x="10.0" y="10.0"/>
                </mxCell>
                <mxCell id="3fd6dfa0-1c08-4c2b-9c20-7c3c4bfed22a" parent="7e2e9734-08f7-493d-8fe8-221e95fd2298" style="shape=document;size=0.07142857142857142;flipV=1;flipH=1;rounded=0;whiteSpace=wrap;html=1;fillColor=#00CCCC;fontSize=9;fontColor=#000000;align=left;strokeColor=none" value="&lt;p style=&quot;line-height: 100%;&quot;&gt;...&lt;br&gt;Interrupt&lt;br&gt;GeneratorBlk&lt;br&gt;&lt;i&gt;Block&lt;/i&gt;&lt;/p&gt;" vertex="1">
                    <mxGeometry as="geometry" height="140.0" width="470.0" x="90.0" y="20.0"/>
                </mxCell>
                <mxCell id="e34dc5db-9e1a-42ba-bd6d-1864b0504d7b" parent="7e2e9734-08f7-493d-8fe8-221e95fd2298" style="rounded=0;whiteSpace=wrap;html=1;fillColor=#F58828;fontSize=9;fontColor=#000000;align=left;strokeColor=none" value="&lt;p style=&quot;line-height: 100%;&quot;&gt;ReferenceCount&lt;br&gt;Reg3&lt;br&gt;&lt;i&gt;Register&lt;/i&gt;&lt;/p&gt;" vertex="1">
                    <mxGeometry as="geometry" height="120.0" width="380.0" x="170.0" y="30.0"/>
                </mxCell>
                <mxCell id="0e25260f-d1a2-4dc0-bd01-997dbe86067d" parent="7e2e9734-08f7-493d-8fe8-221e95fd2298" style="rounded=0;whiteSpace=wrap;html=1;fillColor=#66B2FF;fontSize=9;fontColor=#000000;align=left;strokeColor=none" value="&lt;p style=&quot;line-height: 100%;&quot;&gt;Count&lt;br&gt;&lt;i&gt;Data&lt;/i&gt;&lt;/p&gt;" vertex="1">
                    <mxGeometry as="geometry" height="60.0" width="290.0" x="250.0" y="40.0"/>
                </mxCell>
                <mxCell id="2efd344a-2cd0-40fc-8d15-5f4f3421360c" parent="7e2e9734-08f7-493d-8fe8-221e95fd2298" style="fillColor=#FFFFFF;arrowSize=0.05;shape=doubleArrow;rounded=0;whiteSpace=wrap;html=1;fontSize=9;arrowWidth=1" value="&lt;p style=&quot;line-height: 100%;&quot;&gt;&lt;/p&gt;" vertex="1">
                    <mxGeometry as="geometry" height="40.0" width="160.0" x="330.0" y="50.0"/>
                </mxCell>
                <mxCell id="299b5539-d62d-4a71-8e52-f620f800f99c" parent="7e2e9734-08f7-493d-8fe8-221e95fd2298" style="fillColor=#FFFFFF;rounded=0;whiteSpace=wrap;html=1;fontSize=9;arrowWidth=1" value="&lt;p style=&quot;line-height: 100%;&quot;&gt;Reg&lt;/p&gt;" vertex="1">
                    <mxGeometry as="geometry" height="40.0" width="20.0" x="490.0" y="50.0"/>
                </mxCell>
                <mxCell id="5a97834e-1002-41d2-97e9-69b66b5b1dce" parent="7e2e9734-08f7-493d-8fe8-221e95fd2298" style="fillColor=#FFFFFF;arrowSize=0.5;shape=singleArrow;rounded=0;whiteSpace=wrap;html=1;fontSize=9;arrowWidth=1" vertex="1">
                    <mxGeometry as="geometry" height="40.0" width="20.0" x="510.0" y="50.0"/>
                </mxCell>
                <mxCell id="05a31ffc-ff7a-410c-b389-b101eb84d9b5" parent="7e2e9734-08f7-493d-8fe8-221e95fd2298" style="fillColor=#CCCCCC;arrowSize=0.05;shape=singleArrow;rounded=0;whiteSpace=wrap;html=1;fontSize=9;arrowWidth=1" value="&lt;p style=&quot;line-height: 100%;&quot;&gt;WReg&lt;br&gt;&lt;i&gt;Pulse&lt;/i&gt;&lt;/p&gt;" vertex="1">
                    <mxGeometry as="geometry" height="30.0" width="200.0" x="330.0" y="110.0"/>
                </mxCell>
                <mxCell id="e32d73da-07aa-4baa-a200-03e820b70f3d" parent="7e2e9734-08f7-493d-8fe8-221e95fd2298" style="fillColor=none;verticalAlign=middle;labelBorderColor=none;fontSize=20;align=center;fontStyle=1;strokeColor=none;fontColor=#F58828;rounded=0;whiteSpace=wrap;html=1" value="&lt;p style=&quot;line-height: 100%;&quot;&gt;HxS&lt;/p&gt;" vertex="1">
                    <mxGeometry as="geometry" height="30.0" width="50.0" x="10.0" y="140.0"/>
                </mxCell>
            </root>
        </mxGraphModel>
    </diagram>
    <diagram id="0735a6de-a665-4a04-9848-8273a6f1891a" name="Comments">
        <mxGraphModel arrows="1" connect="1" fold="1" grid="1" gridSize="10" guides="1" math="0" page="1" pageScale="1" shadow="0" tooltips="1">
            <root>
                <mxCell id="0"/>
                <mxCell id="1" parent="0"/>
                <mxCell id="dcafd80b-7810-419f-bfc7-c1321acc4d66" parent="0" value="Foreground"/>
                <mxCell id="5e057bae-834d-4d53-854c-6dc10e5f2fb0" parent="dcafd80b-7810-419f-bfc7-c1321acc4d66" style="fillColor=none;verticalAlign=middle;labelBorderColor=none;fontSize=20;align=center;fontStyle=1;strokeColor=none;fontColor=#000000;rounded=0;whiteSpace=wrap;html=1" value="&lt;p style=&quot;line-height: 100%;&quot;&gt;Copyright (C) 2024 Eccelerators GmbH&#10;&#10;This code was generated by:&#10;&#10;HxS Compiler v0.0.0-0000000&#10;Docs Extension for HxS v0.0.0-0000000&#10;&#10;Further information at https://eccelerators.com/hxs&#10;&#10;Changes to this file may cause incorrect behavior and will be lost if the&#10;code is regenerated.&#10;&#10;&#10;&lt;/p&gt;" vertex="1">
                    <mxGeometry as="geometry" height="500.0" width="1000.0" x="10.0" y="10.0"/>
                </mxCell>
            </root>
        </mxGraphModel>
    </diagram>
</mxfile>
